<svg width="1088" height="604" viewBox="0 0 1088 604" fill="none" xmlns="http://www.w3.org/2000/svg">
<path d="M747.005 475.14C746.71 474.965 746.415 474.791 746.121 474.617C745.471 474.134 744.822 473.652 744.172 473.17C742.287 471.552 740.405 469.937 738.519 468.322C736.628 466.768 734.736 465.216 732.845 463.662C730.592 461.774 728.339 459.89 726.086 458.005C723.912 456.229 721.735 454.455 719.562 452.679C718.96 452.076 718.405 451.413 717.746 450.88C715.338 448.939 712.895 447.041 710.465 445.128C709.926 444.57 709.441 443.945 708.839 443.466C705.744 440.988 702.619 438.552 699.505 436.1C698.301 434.986 697.15 433.806 695.883 432.769C692.36 429.891 688.789 427.071 685.237 424.228C684.66 423.007 683.538 423.289 682.55 423.289C673.335 423.28 664.121 423.264 654.907 423.305C653.592 423.311 652.277 423.619 650.962 423.787C650.82 423.771 650.68 423.775 650.537 423.787L650.515 423.768C648.855 422.804 647.068 423.416 645.335 423.362C642.169 423.365 639.001 423.368 635.835 423.372C630.93 423.356 626.025 423.34 621.12 423.321C620.106 423.369 619.923 423.838 620.433 424.666C620.642 424.688 620.848 424.714 621.057 424.736C623.079 428.197 625.132 431.636 627.112 435.119C630.613 441.283 634.067 447.473 637.543 453.65C636.38 454.494 636.298 455.734 636.298 457.009C636.298 460.562 636.288 464.116 636.304 467.669C636.307 468.595 636.326 469.474 635.021 469.395C634.647 468.3 634.273 467.209 633.899 466.114C633.738 465.845 633.579 465.572 633.418 465.302L633.456 466.086C633.294 472.941 633.11 479.794 632.974 486.65C632.822 494.371 632.714 502.09 632.587 509.812C632.467 515.519 632.347 521.223 632.226 526.93C632.157 531.216 632.087 535.502 632.014 539.788C631.906 543.427 631.799 547.066 631.691 550.705C631.64 554.677 631.589 558.646 631.536 562.618C631.399 564.261 631.292 565.907 631.117 567.544C630.968 568.928 631.44 569.832 632.61 570.701C637.217 574.115 641.726 577.665 646.269 581.164C646.358 581.043 646.536 580.916 646.526 580.805C646.114 576.833 645.715 572.858 645.243 568.893C644.992 566.799 644.612 564.718 644.292 562.63C644.203 561.463 644.159 560.286 644.017 559.125C643.652 556.171 643.243 553.221 642.854 550.267C642.866 549.268 643.088 548.215 642.854 547.279C642.229 544.826 641.894 542.365 641.906 539.842C641.919 539.379 641.989 538.907 641.932 538.453C641.485 534.776 641.013 531.105 640.547 527.432C640.363 525.341 640.189 523.25 639.992 521.16C639.859 519.767 639.682 518.381 639.539 516.991C639.241 514.136 638.956 511.278 638.665 508.419C638.5 506.468 638.38 504.511 638.164 502.563C637.559 497.116 636.916 491.669 636.288 486.225C636.092 484.511 635.895 482.798 635.683 481.088C635.265 477.751 634.815 474.413 634.441 471.07C634.397 470.683 634.767 470.251 634.945 469.842C635.179 470.127 635.493 470.381 635.636 470.708C637.448 474.813 639.216 478.934 641.035 483.033C642.264 485.799 643.554 488.54 644.815 491.291C645.645 493.442 646.447 495.602 647.309 497.741C648.231 500.034 649.207 502.309 650.16 504.593C650.294 504.749 650.423 504.907 650.557 505.063C650.759 505.7 650.962 506.338 651.165 506.976C651.282 507.112 651.402 507.252 651.52 507.388C651.624 507.553 651.729 507.715 651.837 507.88C652.176 508.882 652.455 509.907 652.863 510.878C653.64 512.711 654.482 514.517 655.313 516.325C656.279 518.435 657.264 520.538 658.24 522.644C659.524 525.766 660.772 528.904 662.096 532.006C663.139 534.452 664.273 536.86 665.366 539.284C666.422 541.822 667.474 544.36 668.529 546.898C670.005 550.445 671.466 553.998 672.984 557.529C673.288 558.24 673.804 558.858 674.223 559.521C674.441 559.62 674.802 559.857 674.863 559.797C677.062 557.557 679.232 555.289 681.409 553.027C683.313 551.143 685.218 549.255 687.122 547.371C688.782 545.797 690.465 544.246 692.087 542.634C692.451 542.273 692.607 541.701 692.86 541.226C693.218 541.086 693.671 541.038 693.922 540.788C695.804 538.891 697.648 536.952 699.502 535.027C701.751 532.844 704.01 530.671 706.232 528.463C706.476 528.222 706.498 527.755 706.621 527.394C705.538 525.757 704.448 524.126 703.37 522.486C700.49 518.108 697.616 513.727 694.742 509.349C692.854 506.3 690.962 503.251 689.071 500.202C688.969 500.072 688.865 499.942 688.763 499.812C688.392 499.34 688.019 498.864 687.648 498.391L682.895 490.666C682.825 490.52 682.727 490.4 682.597 490.301L682.445 490.19C682.264 489.92 682.084 489.648 681.903 489.378L679.593 486.009C678.738 486.821 677.879 487.627 677.024 488.436C677.879 487.627 678.741 486.821 679.593 486.009C677.223 482.361 674.85 478.715 672.48 475.067C670.693 472.228 668.906 469.388 667.119 466.549L666.716 466.054C666.571 465.975 666.425 465.899 666.279 465.819C666.054 465.258 665.883 464.671 665.601 464.141C664.698 462.447 663.75 460.778 662.822 459.097C661.941 458.538 661.295 457.825 661.086 456.822C661.295 457.825 661.941 458.538 662.825 459.094C662.851 458.748 662.876 458.402 662.904 458.056C663.028 458.053 663.152 458.056 663.272 458.069L668.145 462.736C668.297 462.834 668.453 462.932 668.605 463.031C668.928 463.211 669.251 463.392 669.574 463.573C670.975 465.086 672.157 466.854 674.238 467.567C674.723 468.161 675.16 468.808 675.709 469.338C676.593 470.197 677.534 471.003 678.491 471.78C678.773 472.009 679.191 472.069 679.549 472.209C680.975 473.487 682.401 474.769 683.83 476.047C685.569 477.624 687.306 479.204 689.045 480.781C690.471 481.901 691.897 483.02 693.326 484.14C694.752 485.406 696.178 486.675 697.604 487.941C698.738 488.997 699.844 490.089 701.022 491.094C701.726 491.697 702.543 492.167 703.307 492.693C704.045 493.502 704.714 494.397 705.538 495.111C708.44 497.62 711.422 500.044 714.327 502.547C718.13 505.821 721.907 509.123 725.652 512.461C726.564 513.273 727.255 513.219 728.069 512.385C729.885 510.526 731.761 508.724 733.557 506.842C734.033 506.344 734.305 505.653 734.67 505.05C735.94 503.791 737.208 502.528 738.478 501.268C739.28 500.39 740.078 499.514 740.88 498.635C742.952 496.475 745.025 494.311 747.097 492.148C748.687 490.609 750.446 489.207 751.818 487.494C753.196 485.774 755.576 485.095 756.634 482.979C755.135 481.828 753.801 480.86 752.531 479.813C750.671 478.281 748.855 476.691 747.024 475.124L747.005 475.14Z" fill="#2C9196" fill-opacity="0.8"/>
<path d="M515.141 385.331C503.176 385.289 491.212 385.245 479.244 385.229C478.854 385.229 478.465 385.54 478.075 385.708C478.084 385.867 478.094 386.025 478.103 386.181L478.113 389.026L478.129 408.994C478.135 414.857 478.145 420.719 478.154 426.585C478.154 432.289 478.154 437.993 478.151 443.698C481.789 443.704 485.429 443.713 489.07 443.72C489.07 438.022 489.067 432.324 489.064 426.627C489.07 426.541 489.073 426.452 489.079 426.366V443.732C489.079 443.732 489.073 443.726 489.067 443.723C485.429 443.717 481.789 443.707 478.151 443.701L478.075 451.289C478.262 451.442 478.446 451.597 478.633 451.749C479.327 452.105 480.036 452.435 480.711 452.822C484.095 454.754 487.473 456.702 490.851 458.643C495.778 461.59 500.705 464.541 505.632 467.488C506.339 467.97 507.017 468.494 507.755 468.922C511.618 471.168 515.496 473.389 519.368 475.619C523.107 478.335 527.163 480.527 531.206 482.735C531.237 483.683 531.298 484.632 531.298 485.58C531.304 511.417 531.304 537.254 531.313 563.09C531.313 564.039 531.377 564.987 531.412 565.936V574.974L531.402 584.028C531.298 584.162 531.275 584.308 531.329 584.469C520.065 584.479 508.801 584.485 497.536 584.495C496.307 584.298 496.684 583.324 496.602 582.572C496.735 581.82 496.995 581.065 496.972 580.32C496.928 578.854 496.725 577.395 496.589 575.932C496.747 575.168 497.042 574.406 497.042 573.642C497.067 554.302 497.067 534.966 497.042 515.627C497.042 514.964 496.744 514.301 496.586 513.638C496.586 511.661 496.586 509.685 496.586 507.708C496.586 505.811 496.646 503.911 496.573 502.017C496.5 500.082 496.906 498.109 496.25 496.062C493.243 496.062 490.328 496.05 487.416 496.081C487.147 496.081 486.877 496.351 486.608 496.497C483.823 496.525 481.034 496.551 478.107 496.579V508.422C478.113 512.067 478.116 515.716 478.122 519.361C478.126 522.375 478.132 525.385 478.135 528.399C478.142 532.044 478.145 535.69 478.148 539.338C478.148 544.093 478.148 548.846 478.148 553.601C478.148 559.15 478.148 564.695 478.145 570.244C478.145 575.948 478.148 581.655 478.151 587.359C478.148 592.426 478.145 597.496 478.141 602.562L478.531 602.924C479.241 602.952 479.951 603.006 480.661 603.006C521.69 603.009 562.72 603.009 603.75 603.006C604.46 603.006 605.17 602.958 605.88 602.933C606.035 602.958 606.19 602.984 606.345 603.009C606.412 602.854 606.402 602.702 606.31 602.559C606.307 597.489 606.304 592.42 606.298 587.35C603.189 587.353 600.081 587.359 596.973 587.363C596.909 587.984 596.846 588.609 596.783 589.231C596.846 588.609 596.909 587.984 596.97 587.363C600.078 587.359 603.186 587.353 606.295 587.35C606.295 581.96 606.301 576.57 606.304 571.183C604.01 571.183 601.716 571.183 599.422 571.186C601.716 571.186 604.01 571.183 606.304 571.183V557.389C606.304 553.585 606.298 549.782 606.295 545.978C606.295 542.174 606.295 538.373 606.295 534.57C606.301 530.61 606.307 526.648 606.314 522.689C606.317 518.247 606.323 513.806 606.326 509.361C606.339 508.968 606.326 508.571 606.374 508.181C606.567 506.63 606.139 505.494 604.603 504.758C602.85 503.917 601.212 502.839 599.504 501.9C598.481 501.338 597.423 500.84 596.38 500.313C596.047 499.993 595.762 499.593 595.379 499.362C593.503 498.229 591.605 497.128 589.704 496.043C587.182 494.603 584.647 493.185 582.118 491.757C580.132 490.485 578.186 489.15 576.155 487.957C570.718 484.756 565.243 481.615 559.786 478.449C557.359 476.913 554.951 475.352 552.499 473.861C551.725 473.389 550.838 473.103 550.005 472.729C549.97 472.021 549.903 471.314 549.9 470.606C549.894 453.161 549.897 435.716 549.891 418.27C549.891 417.404 549.827 416.541 549.793 415.675C543.658 415.672 537.527 415.666 531.393 415.663C531.361 416.449 531.301 417.236 531.301 418.023C531.301 434.608 531.301 451.197 531.301 467.783C531.301 468.494 531.253 469.201 531.228 469.912C529.745 469.115 528.275 468.303 526.779 467.529C525.762 467.003 524.72 466.533 523.687 466.038C519.32 463.199 514.96 460.347 510.585 457.526C509.935 457.108 509.206 456.813 508.516 456.46C505.017 454.214 501.532 451.949 498.018 449.725C497.517 449.408 497.017 449.097 496.513 448.786V422.214C496.513 422.214 496.541 422.214 496.557 422.214V415.653C496.554 414.225 496.551 412.798 496.545 411.37C496.602 409.019 496.659 406.665 496.716 404.315C507.524 404.299 518.335 404.273 529.143 404.286C529.821 404.286 530.496 404.581 531.174 404.74C531.244 408.382 531.317 412.027 531.386 415.669C537.521 415.672 543.652 415.678 549.786 415.682C549.837 411.732 549.888 407.782 549.938 403.832C549.989 404.01 550.106 404.077 550.284 404.035C550.284 404.035 550.284 404.035 550.287 404.035C551.139 404.108 551.992 404.245 552.844 404.245C564.343 404.267 575.838 404.273 587.337 404.283C587.48 404.432 587.619 404.581 587.762 404.73C587.825 405.682 587.888 406.634 587.949 407.585C587.949 409.153 587.942 410.72 587.939 412.284C587.914 413.711 587.885 415.142 587.86 416.57C587.847 418.486 587.831 420.405 587.819 422.322C587.819 430.789 587.806 439.259 587.819 447.727C587.819 450.246 587.964 450.379 590.531 450.385C595.04 450.398 599.546 450.395 604.054 450.382C604.739 450.382 605.42 450.277 606.177 450.214C606.247 449.582 606.333 449.126 606.342 448.666C606.567 437.289 606.139 425.916 606.732 414.533C607.188 405.771 606.836 396.967 606.802 388.183C606.802 387.361 606.513 386.536 606.358 385.714C605.775 385.556 605.192 385.258 604.609 385.258C592.02 385.242 579.435 385.258 566.849 385.27C561.218 385.267 555.585 385.261 549.951 385.258C549.891 381.292 549.831 377.33 549.767 373.367C543.646 373.37 537.524 373.377 531.399 373.38C531.345 377.333 531.294 381.286 531.241 385.239C525.87 385.273 520.499 385.305 515.128 385.34L515.141 385.331ZM601.361 522.188C600.715 522.184 600.072 522.188 599.425 522.197C600.072 522.188 600.715 522.181 601.361 522.188ZM549.789 574.981C549.789 571.97 549.789 568.956 549.789 565.945C549.824 565 549.888 564.055 549.888 563.109C549.897 541.226 549.897 519.342 549.903 497.455C549.903 496.51 549.954 495.564 549.98 494.616C551.19 495.088 552.4 495.561 553.611 496.034C555.388 497.16 557.144 498.324 558.953 499.4C560.626 500.393 562.356 501.291 564.061 502.23C564.463 502.582 564.824 503.007 565.274 503.276C572.407 507.547 579.536 511.82 586.71 516.02C587.134 516.268 587.61 516.458 588.101 516.601V567.176C587.996 566.961 587.86 566.713 587.72 566.386C587.521 566.97 587.378 567.192 587.385 567.408C587.489 570.399 587.625 573.388 587.72 576.38C587.736 576.916 587.597 577.458 587.527 577.998C587.372 579.228 586.976 580.478 587.815 581.633C587.812 582.233 587.923 582.867 587.765 583.426C587.651 583.832 587.185 584.139 586.874 584.492C574.53 584.488 562.188 584.485 549.846 584.482C545.813 584.457 541.776 584.431 537.742 584.406C541.776 584.431 545.813 584.457 549.846 584.479C549.827 581.313 549.808 578.143 549.793 574.977L549.789 574.981Z" fill="#2C9196" fill-opacity="0.8"/>
<path d="M531.418 370.49C531.418 371.451 531.415 372.409 531.412 373.371C537.533 373.367 543.655 373.361 549.78 373.358C549.78 372.4 549.78 371.442 549.777 370.484C549.78 369.535 549.783 368.587 549.789 367.635C543.665 367.635 537.54 367.635 531.415 367.638C531.415 368.587 531.418 369.538 531.421 370.487L531.418 370.49Z" fill="#2C9196" fill-opacity="0.8"/>
<path d="M1087.02 60.5179C1086.53 60.4862 1086.17 60.4608 1085.81 60.4386C1085.24 59.6201 1084.56 60.1404 1083.91 60.2832C1079.46 61.273 1075.03 62.3326 1070.57 63.2431C1056.07 66.1967 1041.7 69.6356 1027.45 73.6075C1015.29 77.0021 1003.16 80.5552 991.109 84.3495C980.225 87.7789 969.439 91.5224 958.679 95.3294C952.722 97.4359 946.901 99.9327 941.039 102.299C938.108 103.486 935.219 104.78 932.313 106.024C929.465 107.236 926.613 108.441 923.767 109.659C914.772 113.52 905.802 117.435 897.025 121.781C895.003 122.781 892.877 123.58 890.868 124.605C885.833 127.175 880.846 129.833 875.824 132.428C874.727 132.996 873.536 133.386 872.459 133.983C869.319 135.721 866.204 137.504 863.096 139.3C860.941 140.543 858.808 141.831 856.666 143.1C854.059 144.553 851.432 145.975 848.843 147.466C845.317 149.499 841.818 151.587 838.308 153.652C838.19 153.623 838.07 153.611 837.947 153.611C838.339 152.237 838.729 150.867 839.119 149.493C839.128 149.626 839.195 149.699 839.328 149.712C839.439 149.617 839.553 149.525 839.664 149.429C842.123 144.15 844.569 138.865 847.043 133.593C849.921 127.46 852.829 121.347 855.697 115.211C856.191 114.155 856.533 113.029 856.945 111.931V111.88C857.088 111.677 857.234 111.477 857.376 111.274C857.877 111.147 858.378 111.02 858.878 110.894C858.815 110.681 858.751 110.468 858.688 110.253C858.038 110.465 857.392 110.681 856.743 110.894L851.584 111.794C851.267 111.886 850.947 111.979 850.63 112.074C850.184 112.15 849.737 112.226 849.29 112.302C849.103 112.385 848.919 112.467 848.732 112.55C848.286 112.626 847.836 112.705 847.389 112.781C847.04 112.879 846.695 112.978 846.346 113.073C846.039 113.127 845.735 113.181 845.428 113.235C845.104 113.327 844.781 113.422 844.455 113.514C842.734 113.901 841.017 114.288 839.296 114.678C838.954 114.78 838.609 114.878 838.267 114.98C837.972 115.037 837.677 115.094 837.386 115.151C837.047 115.249 836.708 115.348 836.372 115.446C836.071 115.503 835.77 115.563 835.465 115.621C835.133 115.719 834.803 115.817 834.471 115.919C834.166 115.979 833.865 116.036 833.561 116.096C833.232 116.195 832.899 116.293 832.569 116.395C832.272 116.455 831.977 116.518 831.679 116.579C831.34 116.68 831.004 116.782 830.665 116.883C830.37 116.94 830.076 116.997 829.781 117.054L829.271 117.213C829.1 117.267 828.932 117.318 828.761 117.372C827.962 117.572 827.161 117.771 826.362 117.971C826.061 118.063 825.763 118.155 825.462 118.244C825.133 118.314 824.8 118.384 824.471 118.45C824.163 118.549 823.856 118.65 823.549 118.749C823.238 118.815 822.931 118.879 822.62 118.945C822.294 119.05 821.964 119.151 821.638 119.256C821.35 119.316 821.061 119.38 820.773 119.44C820.595 119.507 820.418 119.577 820.241 119.643C819.901 119.719 819.559 119.795 819.217 119.868C818.919 119.967 818.621 120.065 818.324 120.16C818.01 120.23 817.696 120.3 817.386 120.367C817.059 120.471 816.733 120.576 816.41 120.681C816.223 120.722 816.036 120.76 815.849 120.801C815.57 120.893 815.291 120.988 815.012 121.08C814.683 121.153 814.353 121.229 814.021 121.302C813.916 121.337 813.811 121.372 813.71 121.407C813.501 121.477 813.295 121.547 813.086 121.616L812.202 121.81C812.031 121.88 811.856 121.946 811.685 122.016C811.349 122.095 811.014 122.172 810.678 122.251C810.37 122.356 810.066 122.457 809.759 122.562C809.464 122.628 809.169 122.695 808.872 122.762C808.701 122.832 808.526 122.901 808.355 122.971C808.026 123.05 807.693 123.127 807.36 123.206C807.05 123.311 806.739 123.418 806.429 123.523C806.239 123.568 806.048 123.609 805.858 123.653C805.579 123.748 805.304 123.844 805.025 123.939C804.705 124.015 804.388 124.091 804.068 124.167C803.745 124.278 803.419 124.386 803.095 124.497C802.918 124.535 802.74 124.576 802.566 124.614C802.272 124.719 801.98 124.821 801.685 124.925C801.387 124.995 801.093 125.068 800.795 125.138C800.621 125.211 800.446 125.281 800.275 125.354C799.952 125.433 799.629 125.512 799.306 125.592C798.986 125.703 798.666 125.814 798.346 125.921C798.168 125.963 797.991 126.001 797.813 126.042C797.519 126.147 797.224 126.255 796.929 126.359C796.147 126.581 795.364 126.803 794.581 127.026C794.426 127.092 794.268 127.156 794.112 127.222C793.298 127.463 792.481 127.708 791.666 127.949C791.362 128.057 791.058 128.161 790.751 128.269C789.014 128.805 787.278 129.338 785.545 129.874C785.392 129.938 785.24 129.998 785.088 130.058C783.197 130.687 781.305 131.315 779.41 131.936C776.695 132.831 773.976 133.723 771.257 134.614C771.096 134.595 770.96 134.646 770.849 134.766C767.816 135.823 764.784 136.882 761.752 137.939C761.59 137.923 761.454 137.974 761.343 138.091C760.183 138.507 759.02 138.922 757.861 139.335C757.576 139.452 757.29 139.569 757.005 139.687C756.831 139.734 756.66 139.782 756.485 139.826C756.181 139.95 755.877 140.074 755.573 140.198C754.784 140.528 753.998 140.87 753.2 141.184C750.665 142.187 748.127 143.177 745.589 144.173C745.589 145.569 745.598 146.968 745.573 148.364C745.598 146.968 745.586 145.569 745.586 144.173C745.405 144.144 745.224 144.119 745.044 144.09C744.752 144.217 744.458 144.341 744.166 144.468C739.347 146.412 734.502 148.294 729.714 150.315C723.421 152.967 717.173 155.727 710.906 158.442C710.75 158.43 710.563 158.35 710.44 158.408C704.695 161.088 698.941 163.744 693.225 166.478C689.419 168.299 685.665 170.228 681.888 172.113C681.419 172.303 680.95 172.49 680.481 172.68C680.319 172.811 680.154 172.937 679.993 173.067C676.618 174.812 673.218 176.516 669.869 178.315C666.099 180.342 662.341 182.391 658.64 184.542C654.137 187.16 649.701 189.891 645.237 192.572C644.21 193.149 643.145 193.676 642.16 194.317C635.918 198.358 629.692 202.429 623.459 206.489C622.407 207.254 621.365 208.028 620.306 208.78C618.374 210.147 616.434 211.499 614.495 212.857C614.644 212.098 614.65 211.27 614.967 210.591C617.762 204.583 620.614 198.599 623.45 192.607C624.007 191.655 624.584 190.716 625.116 189.751C627.784 184.92 630.753 180.291 634.159 175.942C637.116 172.167 640.021 168.353 642.949 164.559C645.538 161.729 648.088 158.868 650.725 156.082C653.637 153.005 656.628 150.001 659.584 146.964C660.947 145.68 662.284 144.366 663.678 143.116C665.674 141.33 667.734 139.614 669.724 137.818C671.587 136.137 673.396 134.392 675.227 132.676C675.997 132.14 676.799 131.641 677.534 131.058C682.17 127.381 686.799 123.694 691.416 119.992C692.582 119.056 693.687 118.051 694.822 117.077C695.227 116.845 695.658 116.648 696.035 116.376C699.239 114.05 702.43 111.709 705.63 109.38C708.022 107.639 710.424 105.906 712.819 104.171C713.171 104.009 713.551 103.892 713.871 103.683C719.549 99.9771 725.218 96.2589 730.893 92.544C731.039 92.4456 731.184 92.3473 731.33 92.2521C731.485 92.0998 731.644 91.9476 731.799 91.7953C733.935 90.5453 736.089 89.3239 738.2 88.0327C741.308 86.1324 744.385 84.1814 747.477 82.2525C747.905 82.0939 748.368 81.9955 748.757 81.7735C751.783 80.0508 754.806 78.3186 757.813 76.5579C760.215 75.1494 762.591 73.6995 764.977 72.2688C765.481 72.0943 766.02 71.9801 766.489 71.7326C770.028 69.8513 773.564 67.9669 777.075 66.0317C778.957 64.9911 780.785 63.849 782.636 62.7514C782.804 62.6974 782.972 62.6435 783.14 62.5896L783.539 62.2945C785.646 61.3206 787.778 60.4037 789.851 59.36C793.488 57.5231 797.085 55.6038 800.7 53.7194C801.28 53.5036 801.882 53.3355 802.436 53.069C808.194 50.2931 813.897 47.3998 819.708 44.7381C827.167 41.3214 834.683 38.0283 842.221 34.7956C848.761 31.988 855.367 29.3358 861.945 26.6138C863.558 25.9476 865.171 25.2845 866.784 24.6215C866.746 24.5041 866.708 24.3867 866.666 24.2694C865.599 24.4724 864.531 24.6754 863.463 24.8785C862.994 24.8563 862.509 24.7484 862.056 24.8277C855.168 26.0142 848.27 27.1436 841.403 28.4602C835 29.6879 828.631 31.1124 822.253 32.467C819.211 33.1142 816.15 33.6884 813.149 34.491C807.788 35.925 802.465 37.4954 797.129 39.0245C794.99 39.64 792.861 40.2998 790.728 40.9407C786.441 42.3492 782.154 43.761 777.867 45.1727C777.398 45.2076 776.888 45.1378 776.463 45.2965C772.807 46.6606 769.166 48.0628 765.519 49.4556C765.047 49.4905 764.54 49.4175 764.112 49.5761C761.403 50.5723 758.697 51.5843 756.023 52.6693C755.025 53.0753 754.119 53.6971 753.168 54.2206C752.572 54.3665 751.948 54.4395 751.384 54.6679C747.857 56.0892 744.344 57.5422 740.826 58.9856C740.164 59.2394 739.483 59.4552 738.843 59.7534C731.466 63.1923 724.036 66.5203 716.739 70.1273C709.724 73.5949 702.822 77.2939 695.928 80.9962C692.037 83.0869 688.225 85.333 684.432 87.6045C680.101 90.1995 675.766 92.7978 671.552 95.5769C663.916 100.618 656.257 105.634 648.82 110.96C640.753 116.737 632.924 122.851 625.49 129.443C621.184 133.263 616.897 137.101 612.607 140.94C612.195 141.308 611.843 141.749 611.415 142.101C610.455 142.894 609.92 142.904 609.296 141.857C608.304 140.191 606.849 138.748 606.729 136.622C606.7 136.127 606.241 135.658 605.988 135.172C605.664 134.554 605.24 133.961 605.053 133.301C604.622 131.8 604.337 130.255 603.944 128.742C601.992 121.226 601.127 113.568 601.146 105.827C601.162 98.7937 601.434 91.7604 601.596 84.7302C601.602 84.413 601.624 84.0957 601.666 83.7848C602.112 80.2792 602.594 76.7768 602.993 73.2649C603.095 72.3735 602.93 71.4503 602.882 70.4351C601.859 70.4351 601.133 70.3304 600.452 70.4509C594.017 71.5994 587.651 73.0079 581.406 74.9876C573.386 77.5319 565.762 80.9772 558.373 84.9396C555.398 86.5353 552.648 88.5467 549.796 90.3708C546.469 92.9088 543.142 95.4468 539.818 97.9816C537.112 100.447 534.39 102.896 531.719 105.396C531.295 105.792 531.085 106.42 530.778 106.941C530.091 107.432 529.305 107.826 528.738 108.432C527.188 110.078 525.696 111.782 524.254 113.523C523.066 114.961 521.982 116.487 520.854 117.971C520.338 118.552 519.748 119.082 519.314 119.716C517.568 122.279 515.873 124.878 514.159 127.46C513.7 128.098 513.212 128.716 512.784 129.373C508.791 135.506 505.392 141.965 502.483 148.668C500.981 152.132 499.786 155.73 498.452 159.267C498.221 158.941 497.987 158.614 497.755 158.284C497.819 157.735 497.914 157.186 497.939 156.634C498.392 146.273 499.346 135.956 500.908 125.709C501.811 119.78 502.977 113.892 504.023 107.984C505.803 101.319 507.587 94.6537 509.368 87.9852C511.783 81.8306 514.197 75.676 516.615 69.5214C518.655 65.6986 520.699 61.8789 522.739 58.0561C525.455 54.0905 528.174 50.1218 530.889 46.1562C531.196 45.9436 531.558 45.7787 531.808 45.5122C534.599 42.5301 537.375 39.5289 540.154 36.5373C541.01 35.6173 541.865 34.6973 542.717 33.7772C543.519 33.2919 544.352 32.8509 545.113 32.3084C547.654 30.4937 550.141 28.6125 552.698 26.82C554.226 25.7477 555.838 24.796 557.41 23.7903C558.348 23.4001 559.289 23.0131 560.224 22.6165C563.335 21.3063 566.39 19.8374 569.571 18.7175C575.271 16.7062 581.108 15.2056 587.169 14.7107C587.565 14.679 587.923 14.127 588.297 13.8161C588.614 13.8193 588.934 13.8224 589.251 13.8256C589.882 14.4728 590.512 14.476 591.14 13.8193C593.516 13.8129 595.892 13.8066 598.269 13.8034C598.158 13.7748 598.047 13.7368 597.933 13.7019C598.044 13.7399 598.155 13.7748 598.269 13.8034C598.598 13.8415 598.928 13.8764 599.257 13.9144C600.525 14.0286 601.795 14.146 603.063 14.2602C603.37 14.2793 603.674 14.2951 603.982 14.3142C604.932 14.4601 605.88 14.606 606.83 14.752L607.781 14.8281C607.943 15.1263 608.107 15.4245 608.269 15.7227C607.952 15.8306 607.638 15.9385 607.322 16.0463C606.837 16.2779 606.349 16.5127 605.864 16.7443C605.408 16.8775 604.955 17.0108 604.501 17.144L604.467 17.1694C600.813 18.2258 597.588 20.0246 594.907 22.7497C593.592 23.7364 592.274 24.7262 590.959 25.7128C590.851 25.7668 590.769 25.8429 590.705 25.9476C590.531 26.0174 590.354 26.0872 590.18 26.157C590.043 26.249 589.904 26.3378 589.768 26.4266C588.956 27.4355 588.142 28.4443 587.328 29.4563C585.709 29.7926 585.376 31.3884 584.457 32.4099C581.361 35.8489 578.646 39.5702 576.32 43.5706C576.076 43.9894 575.905 44.4462 575.661 44.9665C579.663 44.1385 583.453 43.3613 587.236 42.5713C588.361 42.3365 589.479 42.0605 590.601 41.8067C591.257 41.6735 591.916 41.5371 592.572 41.4038C592.87 41.3816 593.167 41.3594 593.462 41.3404C593.956 41.3531 594.451 41.3626 594.945 41.3753C595.262 41.2325 595.579 41.0898 595.892 40.947C596.197 40.9248 596.501 40.9058 596.805 40.8836C597.927 40.7408 599.048 40.5949 600.17 40.4521L600.401 40.414L600.636 40.4236C602.223 40.2776 603.811 40.1285 605.395 39.9826C605.858 39.9667 606.323 39.9509 606.786 39.935C608.275 39.9413 609.764 40.0016 611.251 39.935C612.154 39.8969 613.047 39.6653 613.947 39.5194C618.865 39.5257 623.785 39.5289 628.706 39.5353C629.292 39.6748 629.875 39.9223 630.462 39.935C632.417 39.9794 634.375 39.9413 636.33 39.935C637.109 39.954 637.892 39.9731 638.671 39.9921C640.268 40.1285 641.862 40.2681 643.459 40.4045C643.922 40.4236 644.384 40.4394 644.847 40.4584C646.279 40.6044 647.708 40.7471 649.14 40.8931C649.451 40.9089 649.761 40.9248 650.075 40.9407C651.197 41.0803 652.315 41.2198 653.437 41.3594C653.741 41.3753 654.045 41.3943 654.353 41.4102C655.471 41.5529 656.587 41.6957 657.705 41.8385L657.93 41.8258L658.152 41.8638C659.121 42.0066 660.094 42.1525 661.064 42.2953C661.362 42.3112 661.656 42.327 661.951 42.3397C662.768 42.4761 663.586 42.6126 664.403 42.749C664.857 42.7839 665.31 42.8188 665.76 42.8537C666.412 42.9837 667.065 43.1138 667.718 43.2439C668.016 43.2629 668.31 43.2819 668.605 43.3042C669.267 43.4406 669.926 43.5738 670.589 43.7071C671.038 43.7388 671.485 43.7705 671.935 43.8022C672.439 43.9291 672.94 44.056 673.443 44.1797C673.732 44.1988 674.017 44.221 674.305 44.24C674.819 44.3733 675.335 44.5033 675.848 44.6366C676.286 44.6683 676.72 44.7 677.157 44.7318C677.518 44.8555 677.879 44.9792 678.241 45.1029C678.763 45.0522 679.286 45.0014 679.933 44.9411C678.206 40.4743 675.829 36.5912 673.127 32.8921C672.353 31.8357 671.818 30.5572 670.528 29.9544C669.397 28.6188 668.266 27.2864 667.135 25.9508C667.071 25.8429 666.989 25.7509 666.888 25.6748C666.793 25.6526 666.732 25.5923 666.71 25.4939C666.634 25.3924 666.539 25.3131 666.431 25.2496C665.417 24.4375 664.4 23.6222 663.386 22.81C661.324 20.5385 658.846 18.8 656.229 17.2487C653.101 14.9931 649.863 12.931 646.26 11.497C644.204 10.5199 642.151 9.54278 640.094 8.56566C639.723 8.28648 639.397 7.88675 638.979 7.75033C635.272 6.52893 631.571 5.27264 627.822 4.19717C625.297 3.47385 622.692 3.02653 620.123 2.45866C617.594 2.10969 615.065 1.74168 612.531 1.41175C609.996 1.08181 607.455 0.789944 604.917 0.479042C603.76 0.329936 602.603 0.0634493 601.447 0.0539319C595.116 0 588.782 0.00317247 582.451 0C541.925 0 501.399 0 460.873 0H457.784C458.3 0.548836 458.455 0.713805 458.611 0.878773C459.539 1.89396 460.464 2.90598 461.393 3.92117C461.507 4.05124 461.624 4.18448 461.738 4.31455L461.858 4.43828L462.21 4.79042L462.334 4.91415L462.689 5.26629L462.809 5.38685C462.929 5.50423 463.047 5.62478 463.164 5.74216L463.281 5.85954C463.338 6.00548 463.436 6.11017 463.579 6.17362C463.81 6.40521 464.042 6.6368 464.273 6.86521C464.339 7.01115 464.447 7.11267 464.596 7.16977L464.704 7.27763C464.767 7.42991 464.875 7.53778 465.027 7.60123C465.978 8.52759 466.928 9.45077 467.879 10.3771C468.782 11.3447 469.685 12.3092 470.585 13.2768C471.817 14.5521 473.05 15.8306 474.282 17.1059C476.485 19.3298 478.687 21.5537 480.889 23.7776C484.048 26.9437 487.204 30.1099 490.214 33.1269C493.116 31.0775 495.718 29.1899 498.376 27.3879C500.252 26.1189 502.21 24.9673 504.134 23.7649C506.238 22.9115 508.329 22.0169 510.455 21.2143C513.738 19.977 517.042 18.8032 520.341 17.604C523.338 17.0425 526.336 16.4905 529.33 15.9194C530.449 15.7069 531.561 15.4499 532.673 15.2151C533.785 15.066 534.897 14.9169 536.009 14.7678L536.041 14.7615C537.141 14.9138 538.24 15.066 539.34 15.2183C537.28 16.9695 535.22 18.7175 533.164 20.4687C532.755 20.6559 532.271 20.7574 531.947 21.043C530.895 21.9661 529.904 22.9591 528.89 23.9236C528.741 24.0378 528.592 24.1488 528.443 24.263C526.846 25.8429 525.249 27.4228 523.652 29.0027C523.012 29.5769 522.309 30.0908 521.745 30.7317C520.401 32.2608 519.115 33.8407 517.822 35.4142C515.949 37.6984 514.092 39.9984 512.226 42.2921C512.087 42.4666 511.944 42.6379 511.805 42.8124C511.735 42.9615 511.665 43.1106 511.596 43.2597C510.233 45.0109 508.871 46.759 507.508 48.5102C505.607 51.3622 503.706 54.2174 501.801 57.0695C501.475 57.3994 501.07 57.6786 500.838 58.0625C499.568 60.1531 498.284 62.2374 497.109 64.382C494.336 69.4389 491.548 74.4927 488.912 79.6225C487.362 82.6395 486.016 85.7676 484.72 88.9083C482.014 95.4753 479.064 101.969 476.83 108.698C473.75 117.974 471.244 127.438 468.481 136.819C468.287 137.469 468.002 138.094 467.619 139.1C466.573 138.069 465.743 137.26 464.926 136.441C462.476 133.995 460.087 131.489 457.571 129.113C453.728 125.484 449.846 121.889 445.892 118.384C442.828 115.668 439.72 112.984 436.465 110.506C427.742 103.867 418.905 97.3756 409.418 91.8492C400.895 86.8843 392.34 81.9702 383.702 77.2019C379.764 75.0288 375.622 73.2078 371.532 71.3234C362.78 67.2975 354.013 63.3002 345.22 59.3695C343.151 58.4432 340.942 57.8309 338.797 57.0726C338.613 56.9299 338.455 56.7332 338.246 56.6571C331.788 54.2365 325.334 51.8095 318.864 49.4302C317.777 49.0304 316.611 48.8433 315.483 48.5578C315.182 48.4753 314.874 48.4086 314.58 48.3071C309.982 46.7241 305.384 45.1474 300.796 43.5484C299.336 43.0408 297.897 42.4666 296.446 41.9241C295.369 41.756 294.256 41.7116 293.227 41.3943C291.573 40.8836 290.004 40.0778 288.341 39.6082C285.755 38.8754 283.109 38.3551 280.505 37.6825C276.452 36.6388 272.422 35.4872 268.36 34.4815C258.534 32.0514 248.718 29.5642 238.844 27.353C235.917 26.6963 232.903 26.2902 229.928 25.7795C226.138 25.1291 222.339 24.5422 218.546 23.9267C218.239 23.8601 217.935 23.7903 217.627 23.7237C217.117 23.6127 216.604 23.4985 216.094 23.3874C215.511 23.3874 214.928 23.3842 214.345 23.3811C214.186 23.2383 214.028 23.0924 213.87 22.9496C213.809 23.0575 213.749 23.1685 213.689 23.2764C213.952 23.4128 214.215 23.5524 214.475 23.6888C216.062 24.4565 217.618 25.2972 219.24 25.9825C224.136 28.0509 229.091 29.983 233.962 32.1085C237.859 33.809 241.645 35.7632 245.524 37.5081C248.705 38.9388 251.972 40.1856 255.159 41.6037C256.576 42.235 257.853 43.1677 259.259 43.8308C262.298 45.2584 265.394 46.5591 268.432 47.9835C271.788 49.5539 275.106 51.2036 278.442 52.8184C280.714 54.1698 282.979 55.5308 285.254 56.8728C288.258 58.6462 291.76 59.4583 294.513 61.7235C294.909 62.0471 295.514 62.1169 296.024 62.304C300.819 64.9911 305.606 67.6877 310.407 70.3621C311.617 71.0378 312.865 71.6438 314.098 72.2846C314.992 72.8874 315.857 73.5441 316.785 74.0866C319.675 75.7775 322.583 77.4335 325.492 79.0927C328.189 80.6314 330.892 82.1605 333.591 83.6928C333.908 83.8356 334.222 83.9783 334.535 84.1211C334.697 84.2734 334.859 84.4288 335.023 84.5843C335.312 84.8222 335.578 85.1014 335.895 85.2981C340.188 87.9407 344.491 90.5675 348.791 93.2007C349.146 93.0548 349.444 92.8866 349.672 92.6677C349.44 92.8834 349.146 93.0548 348.791 93.2007C350.92 94.5077 353.075 95.7736 355.166 97.1377C356.671 98.118 358.056 99.2823 359.558 100.272C363.563 102.915 367.6 105.507 371.62 108.124C373.991 109.666 376.351 111.217 378.715 112.765C379.288 113.279 379.824 113.841 380.439 114.298C382.942 116.163 385.448 118.025 387.996 119.83C389.45 120.861 390.98 121.778 392.479 122.746C393.084 123.349 393.639 124.018 394.304 124.541C396.754 126.47 399.222 128.38 401.725 130.242C403.522 131.581 405.382 132.834 407.216 134.129C407.989 134.906 408.712 135.74 409.545 136.445C411.82 138.373 414.155 140.229 416.44 142.145C419.086 144.366 421.706 146.615 424.336 148.855C424.742 149.334 425.103 149.864 425.562 150.283C428.763 153.202 432.093 155.987 435.166 159.029C439.599 163.414 443.893 167.944 448.164 172.487C450.914 175.412 453.652 178.366 456.168 181.49C460.908 187.378 465.515 193.39 469.279 199.957C471.627 204.056 473.566 208.393 475.673 212.631C476.06 213.405 476.532 214.218 475.61 214.973C475.192 214.766 474.732 214.611 474.358 214.341C470.154 211.315 466.035 208.164 461.751 205.259C456.665 201.807 451.44 198.558 446.275 195.224C443.477 193.485 440.727 191.668 437.875 190.021C432.438 186.884 426.947 183.844 421.475 180.767C421.079 180.507 420.705 180.215 420.29 179.996C414.571 176.995 408.873 173.956 403.116 171.034C399.621 169.261 396.034 167.674 392.489 166.002C391.868 165.663 391.269 165.279 390.626 164.99C382.048 161.149 373.49 157.265 364.878 153.506C360.537 151.612 356.098 149.953 351.703 148.186C351.129 147.929 350.568 147.643 349.985 147.424C341.443 144.217 332.954 140.861 324.342 137.866C314.215 134.344 303.997 131.074 293.778 127.825C286.401 125.481 278.978 123.269 271.531 121.16C264.589 119.196 257.609 117.359 250.606 115.624C245.058 114.25 239.446 113.117 233.866 111.88C232.25 111.477 230.631 111.074 229.015 110.671C228.86 110.643 228.708 110.614 228.556 110.583C228.474 110.713 228.359 110.805 228.217 110.859C228.163 110.992 228.185 111.109 228.283 111.214C228.68 111.985 229.11 112.74 229.465 113.53C232.067 119.326 234.595 125.157 237.257 130.924C239.091 134.9 241.119 138.783 243.039 142.72C244.351 145.413 245.622 148.122 246.911 150.825C247.105 151.507 247.298 152.186 247.491 152.868C247.491 152.868 247.558 152.906 247.58 152.919C247.558 152.906 247.491 152.868 247.488 152.872C247.304 153.011 247.121 153.151 246.94 153.29C246.195 152.878 245.444 152.475 244.703 152.05C242.482 150.775 240.267 149.493 238.049 148.214L237.64 147.904C236.395 147.171 235.15 146.435 233.901 145.699C233.505 145.439 233.122 145.159 232.716 144.921C210.498 132.016 187.526 120.611 163.952 110.408C162.108 109.609 160.159 109.05 158.258 108.378C157.618 107.949 157.019 107.439 156.331 107.115C155.197 106.585 153.996 106.208 152.84 105.722C139.595 100.148 126.189 94.9804 112.576 90.3962C98.8723 85.7803 85.1049 81.3198 71.2392 77.221C59.7562 73.8264 48.118 70.949 36.4925 68.0557C28.0578 65.9556 19.5375 64.1917 11.052 62.2945C7.47785 61.4951 3.89735 60.7368 0.320026 59.9596C0.212295 60.0738 0.107732 60.1912 0 60.3054C0.345375 60.8193 0.693919 61.3333 1.03929 61.844C1.56845 63.3859 1.80292 65.0831 3.27631 66.1269C3.99875 68.1509 4.53424 70.2669 5.48798 72.1768C7.80104 76.8086 10.3106 81.3388 12.7377 85.9135C14.5881 89.4032 16.2897 92.9818 18.3176 96.3636C21.1788 101.135 24.3442 105.719 27.2625 110.456C32.4177 118.828 38.1434 126.807 43.8563 134.795C44.5407 135.753 45.3043 136.657 46.0331 137.587C48.8341 141.486 51.4862 145.505 54.4679 149.261C59.9844 156.219 65.6625 163.049 71.3342 169.882C73.5997 172.611 76.0269 175.203 78.3811 177.858C79.8197 179.666 81.16 181.567 82.7126 183.267C85.295 186.097 88.0453 188.774 90.6689 191.569C92.2817 193.289 93.7107 195.183 95.352 196.867C101.528 203.196 107.725 209.5 114.417 215.296C116.056 216.717 117.348 218.535 119.291 219.62C121.759 222.003 124.097 224.534 126.715 226.736C134.398 233.195 142.168 239.55 149.953 245.885C152.257 247.76 154.728 249.429 157.12 251.189C157.656 251.649 158.166 252.141 158.727 252.566C167.526 259.213 176.553 265.539 185.767 271.592C188.049 273.092 190.416 274.463 192.741 275.893C193.309 276.312 193.844 276.785 194.446 277.147C200.828 280.963 207.2 284.799 213.616 288.558C218.109 291.188 222.643 293.751 227.206 296.254C229.174 297.333 231.265 298.183 233.302 299.135C234.7 299.909 236.053 300.775 237.498 301.444C242.764 303.894 248.049 306.302 253.347 308.678C258.692 311.076 264.063 313.421 269.421 315.787C271.709 316.647 274 317.507 276.291 318.363C281.215 320.203 286.094 322.173 291.075 323.852C298.537 326.367 306.066 328.683 313.572 331.072C316.579 332.03 319.415 333.667 322.732 333.413L322.881 333.464C323.423 333.62 323.968 333.775 324.51 333.931L324.478 333.915C324.944 334.092 325.41 334.273 325.873 334.451C326.7 334.695 327.523 334.939 328.35 335.184C328.67 335.272 328.994 335.364 329.314 335.453C329.374 335.596 329.475 335.688 329.624 335.729C329.687 336.586 329.802 337.446 329.802 338.302C329.811 348.949 329.802 359.599 329.802 370.246C329.802 371.109 329.871 371.975 329.909 372.838C329.878 373.152 329.817 373.466 329.817 373.78C329.808 383.367 329.805 392.954 329.808 402.538C329.808 402.913 329.903 403.284 329.957 403.693H464.092C464.143 397.507 464.121 391.46 464.102 385.274H406.069C396.491 385.274 386.912 385.274 377.333 385.274C367.717 385.274 358.097 385.277 348.239 385.271V372.834C348.278 371.965 348.347 371.099 348.347 370.23C348.35 362.464 348.347 354.697 348.341 346.928C348.341 346.084 348.341 345.24 348.341 344.397H531.288C531.288 345.596 531.285 346.617 531.288 347.639C531.32 354.291 531.355 360.947 531.387 367.6C537.511 367.6 543.636 367.6 549.761 367.597C549.815 359.862 549.872 352.128 549.926 344.425C553.766 343.962 735.744 344.136 737.518 344.609C737.518 345.757 737.512 346.938 737.518 348.121C737.553 353.346 737.591 358.574 737.626 363.799C737.569 370.893 737.512 377.987 737.455 385.274H734.461C697.607 385.274 660.753 385.274 623.899 385.274C622.952 385.274 622.005 385.315 621.057 385.34C620.902 385.445 620.747 385.55 620.592 385.654C620.538 391.035 620.487 396.419 620.433 401.802C620.427 402.408 620.433 403.014 620.433 403.829H623.247C666.476 403.829 709.705 403.829 752.937 403.829C753.805 403.829 754.673 403.763 755.541 403.728C755.684 403.576 755.826 403.423 755.969 403.271C756.001 402.484 756.058 401.701 756.058 400.914C756.058 389.249 756.058 377.584 756.045 365.915C756.045 365.052 755.982 364.186 755.947 363.323C755.985 362.461 756.055 361.598 756.055 360.732C756.061 353.162 756.055 345.593 756.048 338.026C756.048 337.189 756.048 336.351 756.048 335.498C756.977 335.323 757.591 335.206 758.206 335.089C759.372 334.854 760.535 334.619 761.701 334.384C762.04 334.235 762.376 334.086 762.715 333.937C763.247 333.766 763.783 333.594 764.315 333.423L764.464 333.375C765.237 332.998 765.998 332.595 766.764 332.214C765.994 332.598 765.234 333.001 764.464 333.375C765.167 333.299 765.903 333.325 766.571 333.131C771.346 331.757 776.159 330.495 780.861 328.902C790.947 325.489 801.086 322.189 810.991 318.293C821.495 314.16 831.78 309.458 842.097 304.864C845.516 303.342 848.739 301.384 852.05 299.623C851.961 299.265 851.828 298.903 851.723 298.545C851.828 298.903 851.964 299.265 852.05 299.623C853.929 298.818 855.839 298.072 857.68 297.19C859.128 296.495 860.497 295.629 861.901 294.839C862.082 294.728 862.259 294.621 862.44 294.509C863.153 294.183 863.891 293.904 864.575 293.523C869.813 290.607 875.085 287.752 880.257 284.719C885.013 281.927 889.655 278.939 894.347 276.036C895.906 275.008 897.465 273.98 899.021 272.949C899.179 272.854 899.338 272.762 899.499 272.667L905.206 269.621C905.52 269.288 905.836 268.955 906.15 268.622C909.892 265.983 913.669 263.388 917.373 260.691C921.781 257.484 926.125 254.187 930.494 250.929C930.837 250.66 931.182 250.39 931.524 250.12C931.651 250.085 931.743 250.009 931.803 249.892C932.323 249.419 932.807 248.902 933.365 248.48C936.572 246.06 939.861 243.744 942.998 241.237C947.133 237.938 951.195 234.544 955.206 231.095C958.251 228.481 961.173 225.721 964.148 223.024C966.857 220.613 969.661 218.301 972.253 215.769C979.49 208.71 986.667 201.588 993.803 194.428C996.055 192.169 998.112 189.717 1000.26 187.353C1000.14 187.337 1000.03 187.315 999.934 187.28C1000.03 187.312 1000.14 187.337 1000.26 187.353C1003.22 184.523 1006 181.525 1008.52 178.299C1008.66 178.245 1008.75 178.147 1008.8 178.001C1009.34 177.433 1009.92 176.893 1010.42 176.288C1018.51 166.396 1026.61 156.507 1034.67 146.59C1035.81 145.191 1036.78 143.656 1037.83 142.187C1039.77 139.617 1041.77 137.092 1043.63 134.462C1046.11 130.95 1048.46 127.349 1050.89 123.796C1052.23 121.823 1053.61 119.872 1054.98 117.911C1055.11 117.762 1055.25 117.61 1055.38 117.461C1055.58 117.039 1055.7 116.541 1056 116.204C1057.58 114.424 1058.43 112.175 1060.03 110.361C1061.64 108.543 1062.6 106.16 1063.91 104.07C1065.26 101.909 1066.79 99.8533 1068.08 97.6548C1069.63 95.009 1071.07 92.2902 1072.47 89.5619C1075.83 83.0044 1079.14 76.4247 1082.48 69.8513C1083.22 68.4808 1084.41 67.3102 1084.39 65.6002C1084.39 65.6002 1084.38 65.6034 1084.38 65.6066C1084.61 65.283 1084.84 64.9594 1085.07 64.6358C1086.11 63.4874 1086.71 62.1391 1086.98 60.4704L1087.02 60.5179ZM1050.26 88.1787C1047.86 92.1696 1045.45 96.1669 1043.03 100.155C1041.77 102.245 1040.47 104.32 1039.18 106.401C1039.58 106.531 1039.97 106.731 1040.37 106.861C1039.97 106.728 1039.58 106.531 1039.18 106.401C1036.99 109.545 1034.84 112.711 1032.61 115.827C1028.57 121.486 1024.52 127.133 1020.42 132.752C1017.86 136.257 1015.21 139.693 1012.6 143.161C1011.25 144.785 1009.91 146.425 1008.53 148.027C1003.37 154.026 998.182 160.006 993.014 166.006C991.03 168.309 989.11 170.663 987.107 172.95C986.033 174.178 984.848 175.31 983.714 176.484C982.953 177.353 982.234 178.267 981.423 179.086C979.766 180.761 978.036 182.366 976.372 184.038C970.865 189.571 965.393 195.138 959.87 200.655C957.994 202.53 956.024 204.31 954.056 206.093C953.308 206.772 952.443 207.321 951.651 207.952C951.16 208.345 950.7 208.78 950.238 209.208C948.134 211.169 946.052 213.155 943.929 215.093C941.993 216.86 940.013 218.577 938.051 220.315C932.69 224.601 927.402 228.985 921.946 233.148C916.432 237.357 910.814 241.434 905.136 245.416C897.931 250.469 890.618 255.371 883.352 260.342C883.292 260.383 883.257 260.469 883.213 260.532C879.791 262.623 876.419 264.806 872.934 266.782C867.655 269.774 862.3 272.623 856.974 275.532C852.221 278.127 847.535 280.855 842.696 283.279C837.487 285.89 832.129 288.196 826.856 290.68C824.749 291.673 822.703 292.79 820.627 293.85C820.931 293.919 821.232 294.008 821.536 294.097C821.232 294.011 820.931 293.919 820.627 293.853C818.948 294.522 817.275 295.207 815.586 295.858C811.508 297.428 807.42 298.973 803.342 300.55C798.295 302.501 793.304 304.614 788.206 306.413C770.012 312.83 751.476 318.055 732.588 321.996C727.119 323.138 721.622 324.169 716.102 325.016C712.987 325.495 709.797 325.685 706.641 325.685C597.546 325.717 488.452 325.717 379.355 325.695C375.933 325.695 372.463 325.739 369.095 325.241C364.139 324.505 359.231 323.395 354.342 322.275C345.936 320.349 337.552 318.335 329.18 316.269C325.537 315.372 321.899 314.398 318.347 313.195C314.462 311.882 310.483 310.889 306.617 309.512C302.758 308.138 298.806 307.015 294.988 305.546C286.151 302.149 277.374 298.602 268.566 295.131C267.764 294.814 266.924 294.595 266.104 294.332C265.948 294.195 265.793 294.062 265.641 293.926C264.37 293.428 263.1 292.926 261.829 292.428L261.363 292.025C260.416 291.6 259.465 291.172 258.518 290.747C258.394 291.15 258.201 291.375 257.97 291.492C258.201 291.375 258.394 291.153 258.518 290.747C257.887 290.417 257.27 290.062 256.623 289.763C238.28 281.334 220.628 271.63 203.53 260.907C201.794 259.819 200.032 258.778 198.28 257.712C194.972 255.453 191.661 253.198 188.353 250.939C175.359 242.056 162.802 232.596 150.694 222.536C150.273 222.187 149.801 221.898 149.351 221.581C148.844 221.089 148.366 220.566 147.827 220.112C135.305 209.586 123.334 198.46 111.806 186.855C111.363 186.408 110.884 185.995 110.422 185.567C109.867 184.904 109.335 184.219 108.755 183.578C101.803 175.92 94.8039 168.302 87.8995 160.6C84.5282 156.84 81.3342 152.922 78.0611 149.074C77.7538 148.62 77.4622 148.154 77.1295 147.72C71.8475 140.832 66.4831 134.008 61.2993 127.048C57.3418 121.734 53.6124 116.252 49.7815 110.846C45.2536 103.676 40.7162 96.5096 36.2137 89.3208C35.8049 88.6672 35.0223 88.0613 35.4659 87.0905C35.8144 87.0747 36.1662 87.0588 36.5147 87.0429C36.952 87.1984 37.3797 87.3856 37.8265 87.5061C40.9 88.3341 43.9735 89.1494 47.0502 89.9679C47.3227 90.0536 47.5952 90.1393 47.8677 90.2249C48.4127 90.3137 48.9736 90.3455 49.4995 90.4977C60.0509 93.5401 70.6245 96.4969 81.1346 99.682C89.1416 102.109 97.0567 104.828 105.016 107.417C109.769 109.19 114.519 110.976 119.278 112.727C123.229 114.183 127.193 115.598 131.151 117.032C135.124 118.682 139.097 120.332 143.068 121.981C148.277 124.145 153.489 126.312 158.698 128.479C159.243 128.777 159.772 129.107 160.336 129.364C165.004 131.492 169.681 133.602 174.348 135.734C177.678 137.257 180.999 138.808 184.323 140.347C185.134 140.807 185.926 141.302 186.756 141.727C191.373 144.078 195.996 146.409 200.619 148.751C202.932 149.921 205.242 151.098 207.555 152.269C208.35 152.761 209.133 153.271 209.941 153.738C212.659 155.302 215.387 156.847 218.112 158.398C218.204 159.432 218.939 159.35 219.659 159.289C222.628 161.025 225.596 162.757 228.565 164.492C231.088 165.952 233.661 167.338 236.126 168.889C240.099 171.386 244.009 173.981 247.932 176.554C250.042 177.937 252.127 179.365 254.225 180.77C255.397 181.522 256.636 182.188 257.732 183.035C266.845 190.069 275.933 197.14 285.029 204.193C287.891 206.41 290.765 208.612 293.632 210.82C293.784 210.944 293.94 211.064 294.095 211.188C294.475 211.181 294.855 211.172 295.235 211.162C292.976 206.229 290.727 201.29 288.455 196.36C286.018 191.078 283.569 185.799 281.097 180.529C278.055 174.041 274.972 167.573 271.931 161.085C270.73 158.528 269.602 155.936 268.42 153.37C267.995 152.446 267.507 151.549 267.048 150.641C266.991 150.492 266.896 150.372 266.763 150.28L266.563 150.308C266.208 149.217 265.863 148.122 265.502 147.031C265.232 146.219 264.944 145.41 264.665 144.598H264.893L265.121 144.591C265.375 144.591 265.631 144.591 265.885 144.591C266.281 144.779 266.677 144.966 267.073 145.156C267.216 145.251 267.355 145.346 267.498 145.442C267.742 145.185 267.973 145.026 268.163 145.118C267.97 145.026 267.742 145.185 267.498 145.442C267.821 145.489 268.144 145.537 268.464 145.584C269.031 145.94 269.576 146.346 270.175 146.644C276.348 149.731 282.577 152.707 288.696 155.895C299.494 161.52 309.909 167.811 320.052 174.543C325.026 177.845 329.941 181.24 334.884 184.59C335.359 184.993 335.819 185.415 336.313 185.792C341.262 189.555 346.246 193.27 351.164 197.077C354.957 200.014 358.661 203.06 362.406 206.058C363.208 206.803 363.991 207.571 364.814 208.295C366.446 209.722 368.138 211.086 369.741 212.552C371.506 214.164 373.154 215.902 374.925 217.504C378.404 220.654 381.931 223.751 385.439 226.869C385.572 227.031 385.705 227.193 385.841 227.355C385.841 227.355 385.841 227.355 385.838 227.355C386.364 227.938 386.849 228.563 387.419 229.096C389.951 231.466 392.593 233.725 395.03 236.187C398.585 239.772 401.982 243.512 405.483 247.154C406.956 248.69 408.55 250.111 410.036 251.634C410.901 252.522 411.665 253.509 412.473 254.451C414.425 256.541 416.383 258.629 418.325 260.732C418.911 261.367 419.453 262.046 420.005 262.715C421.383 264.384 422.717 266.091 424.136 267.721C425.61 269.412 427.2 270.998 428.671 272.696C431.177 275.592 433.63 278.539 436.101 281.464C436.551 282.105 436.976 282.765 437.454 283.384C440.531 287.368 443.611 291.347 446.703 295.318C447.467 296.296 448.281 297.231 449.073 298.186C449.209 298.386 449.346 298.589 449.482 298.789C449.517 298.926 449.533 299.065 449.529 299.205L449.853 299.649C449.973 299.69 450.017 299.773 449.992 299.896C449.992 299.896 450.059 300.017 450.062 300.017C450.372 300.071 450.683 300.169 450.993 300.169C457.869 300.179 464.748 300.179 471.624 300.166C471.884 300.166 472.144 299.998 472.555 299.855C471.998 298.967 471.57 298.221 471.082 297.52C468.265 293.475 465.515 289.38 462.59 285.414C459.118 280.706 455.581 276.039 451.9 271.493C447.375 265.907 442.673 260.466 438.05 254.962C437.622 254.403 437.229 253.813 436.76 253.293C431.684 247.671 426.697 241.964 421.484 236.469C416.386 231.092 411.06 225.933 405.832 220.677C405.366 220.15 404.932 219.592 404.434 219.1C394.364 209.192 383.87 199.754 372.996 190.744C369.599 187.93 366.094 185.247 362.641 182.506C360.039 179.809 356.506 178.156 354.184 175.082C356.142 175.003 357.371 176.57 359.057 177.008C361.855 178.749 364.665 180.469 367.447 182.236C370.771 184.349 374.063 186.516 377.384 188.635C382.064 191.62 386.798 194.52 391.434 197.568C394.738 199.742 397.958 202.048 401.148 204.389C406.215 208.104 411.253 211.86 416.25 215.671C420.014 218.542 423.677 221.543 427.419 224.446C428.557 225.331 429.802 226.079 430.996 226.892C433.322 228.941 435.683 230.952 437.967 233.049C440.509 235.378 442.983 237.779 445.486 240.149C449.209 243.674 452.98 247.148 456.64 250.736C459.27 253.315 461.754 256.05 464.305 258.715C464.821 259.476 465.277 260.288 465.863 260.989C468.481 264.111 471.25 267.112 473.741 270.329C476.031 273.289 477.967 276.525 480.185 279.545C483.687 284.316 486.611 289.408 489.08 294.776C489.935 296.632 490.8 298.485 491.694 300.41C492.08 300.445 492.467 300.515 492.853 300.512C500.125 300.49 507.397 300.467 514.669 300.426C523.677 300.375 532.689 300.306 541.697 300.245C542.033 300.245 542.366 300.245 542.701 300.245C543.012 300.195 543.326 300.144 543.636 300.096L543.839 300.175L544.048 300.115C552.597 300.207 561.143 300.306 569.691 300.391C574.837 300.442 579.983 300.486 585.129 300.515C588.193 300.534 591.257 300.518 594.235 300.518C595.246 298.167 595.969 295.985 597.074 294.015C599.882 288.999 602.695 283.971 605.81 279.145C610.569 271.779 616.184 265.044 621.894 258.397C623.408 256.792 624.901 255.165 626.438 253.585C632.996 246.837 639.666 240.2 646.792 234.045C648.399 232.656 649.933 231.181 651.501 229.744C651.473 229.388 651.384 229.096 651.232 228.874C651.384 229.096 651.476 229.388 651.501 229.744C654.21 227.567 656.91 225.381 659.632 223.221C663.906 219.83 668.196 216.454 672.48 213.075C672.61 212.964 672.737 212.853 672.867 212.739C673.969 211.898 675.072 211.058 676.172 210.217C676.336 210.112 676.498 210.008 676.663 209.903C678.244 208.739 679.822 207.578 681.403 206.413C681.564 206.312 681.726 206.21 681.888 206.109C684.071 204.627 686.248 203.13 688.443 201.664C694.213 197.816 699.939 193.895 705.785 190.164C712.693 185.754 719.708 181.513 726.676 177.198C728.355 176.307 730.031 175.415 731.71 174.527C731.973 174.381 732.236 174.235 732.496 174.089C732.233 174.235 731.97 174.381 731.71 174.527C732.024 174.428 732.338 174.33 732.651 174.235C733.215 175.46 731.992 175.599 731.454 176.008C717.902 186.347 704.8 197.219 692.287 208.802C690.218 210.718 688.18 212.666 686.127 214.598C684.689 215.953 683.225 217.288 681.815 218.672C678.231 222.193 674.67 225.74 671.099 229.277C672.765 229.36 674.432 229.442 676.121 229.528C674.432 229.445 672.765 229.36 671.099 229.277C670.104 230.369 669.125 231.469 668.114 232.545C665.595 235.235 663.066 237.916 660.531 240.593C657.955 243.315 655.291 245.961 652.813 248.769C650.069 251.878 647.483 255.133 644.844 258.334C643.843 259.549 642.876 260.793 641.894 262.023C639.419 264.98 636.881 267.889 634.483 270.906C627.407 279.805 620.455 288.796 614.302 298.374C613.985 298.868 613.735 299.408 613.44 299.957C613.773 300.074 613.915 300.169 614.055 300.169C620.845 300.182 627.638 300.201 634.429 300.169C635.005 300.169 635.582 299.807 636.156 299.614C636.495 299.623 636.83 299.636 637.17 299.646C638.003 298.599 638.836 297.549 639.67 296.499C640.379 295.566 641.067 294.614 641.802 293.697C647.471 286.61 653.123 279.51 658.827 272.451C661.4 269.266 664.074 266.16 666.704 263.02C668.237 261.383 669.774 259.752 671.301 258.112C675.962 253.099 680.62 248.087 685.281 243.071C687.455 240.911 689.619 238.744 691.802 236.593C695.611 232.84 699.429 229.096 703.244 225.35C703.716 224.899 704.188 224.449 704.657 223.995L705.177 223.63C705.972 222.777 706.698 221.844 707.572 221.083C710.094 218.881 712.693 216.765 715.227 214.576C717.293 212.79 719.309 210.944 721.346 209.123L721.34 197.86C721.34 201.613 721.343 205.37 721.346 209.123C725.988 205.341 730.62 201.544 735.278 197.781C738.399 195.259 741.555 192.784 744.695 190.288L746.666 188.816C746.815 188.781 746.92 188.692 746.98 188.555C747.287 188.324 747.595 188.089 747.905 187.854C748.076 187.746 748.244 187.635 748.415 187.528C753.602 183.917 758.786 180.31 763.973 176.7C765.652 175.532 767.332 174.362 769.011 173.194C769.489 172.934 769.987 172.706 770.446 172.414C773.539 170.444 776.622 168.458 779.708 166.478C779.889 166.364 780.072 166.25 780.253 166.136C780.865 165.774 781.473 165.416 782.084 165.054C782.265 164.936 782.449 164.822 782.629 164.705C783.922 164.001 785.212 163.29 786.508 162.592C794.024 158.553 801.505 154.445 809.078 150.514C812.642 148.665 816.381 147.152 820.041 145.486C820.256 145.686 820.475 145.886 820.69 146.089C820.225 147.18 819.759 148.272 819.293 149.363L807.471 175.05C807.31 175.32 807.119 175.58 806.986 175.866C801.707 187.201 796.432 198.539 791.175 209.884C790.925 210.426 790.858 211.051 790.709 211.638C790.079 211.883 790.218 212.114 790.735 212.339C791.372 212.796 791.923 212.641 792.42 212.098C802.816 203.837 813.187 195.544 823.628 187.334C826.974 184.704 830.494 182.296 833.935 179.784C834.097 179.676 834.258 179.568 834.42 179.46C837.275 177.645 840.111 175.796 842.991 174.022C849.227 170.177 855.488 166.377 861.733 162.548C862.329 162.183 862.89 161.754 863.469 161.358C865.485 160.213 867.497 159.067 869.512 157.922C869.696 157.808 869.879 157.694 870.06 157.58C875.177 154.858 880.288 152.126 885.412 149.417C889.651 147.174 893.904 144.95 898.153 142.72C899.198 142.222 900.247 141.73 901.29 141.229C903.241 140.293 905.193 139.357 907.142 138.421C907.294 138.316 907.446 138.208 907.598 138.104C910.545 136.774 913.501 135.467 916.439 134.116C920.158 132.406 923.866 130.661 927.576 128.929C929.132 128.237 930.672 127.511 932.247 126.864C936.515 125.109 940.802 123.403 945.07 121.651C948.761 120.135 952.434 118.58 956.115 117.045C959.018 115.954 961.911 114.834 964.823 113.774C970.789 111.598 976.768 109.45 982.741 107.29C983.27 107.131 983.806 106.991 984.329 106.811C1001.86 100.754 1019.6 95.3643 1037.52 90.5834C1041.71 89.4667 1045.94 88.5213 1050.16 87.4934C1050.19 87.725 1050.22 87.9566 1050.25 88.185L1050.26 88.1787Z" fill="#2C9196" fill-opacity="0.8"/>
<path d="M463.376 423.695C463.046 423.558 462.714 423.301 462.384 423.301C459.206 423.295 456.031 423.333 452.853 423.355C449.368 423.355 445.879 423.355 442.394 423.355C439.621 423.365 436.845 423.378 434.073 423.387C423.021 423.349 411.972 423.295 400.92 423.311C400.337 423.311 399.757 423.901 399.174 424.215C395.445 427.235 391.709 430.243 387.992 433.279C387.089 434.018 386.259 434.846 385.394 435.633C383.664 436.994 381.899 438.317 380.207 439.729C378.094 441.489 376.04 443.323 373.959 445.125C371.966 446.73 369.963 448.32 367.989 449.944C367.095 450.68 366.256 451.479 365.391 452.25C364.877 452.609 364.332 452.932 363.857 453.335C362.276 454.687 360.723 456.07 359.158 457.444C356.826 459.369 354.491 461.295 352.159 463.221C350.426 464.651 348.692 466.085 346.959 467.516C345.622 468.449 344.269 469.366 342.954 470.33C342.742 470.486 342.688 470.863 342.564 471.139C340.134 473.077 337.672 474.981 335.28 476.967C332.929 478.918 330.223 480.469 328.169 482.944C331.373 486.31 334.399 489.495 337.425 492.677C339.605 494.783 341.785 496.89 343.965 499C344.104 498.397 344.326 497.791 344.431 497.188C344.323 497.794 344.101 498.397 343.965 499C344.599 500.297 345.511 501.303 346.905 501.801C347.152 503.197 348.296 503.825 349.275 504.596C349.96 505.354 350.622 506.135 351.335 506.867C352.697 508.263 354.057 509.666 355.483 510.995C356.199 511.664 357.051 512.181 357.938 512.838C361.531 509.726 364.906 506.782 368.303 503.869C371.047 501.519 373.835 499.222 376.573 496.861C379.063 494.711 381.506 492.506 383.968 490.326C386.04 488.648 388.141 487.005 390.172 485.282C391.481 484.172 392.694 482.95 393.952 481.776C394.938 481.005 395.961 480.282 396.896 479.454C398.651 477.9 400.356 476.282 402.083 474.692C404.405 472.862 406.731 471.038 409.038 469.188C409.187 469.071 409.177 468.753 409.241 468.531C411.576 467.021 413.654 465.226 415.362 463.018C417.286 461.514 419.212 460.007 421.136 458.503C421.433 458.665 421.734 458.827 422.032 458.989C421.776 459.455 421.547 459.94 421.256 460.381C420.41 461.66 419.539 462.919 418.677 464.185C419.225 464.588 419.811 464.953 420.359 465.353C419.808 464.953 419.225 464.585 418.674 464.185C418.113 465.01 417.536 465.822 416.997 466.66C415.499 469.001 414.022 471.355 412.533 473.702C410.483 477.034 408.43 480.365 406.379 483.693C405.8 484.524 405.207 485.349 404.64 486.189C402.251 489.723 399.868 493.261 397.498 496.807C397.381 496.985 397.412 497.261 397.374 497.493C397.187 497.67 397.004 497.848 396.817 498.026C396.69 498.156 396.563 498.286 396.44 498.413C395.16 500.475 393.914 502.562 392.59 504.596C391.579 506.147 390.207 507.473 389.767 509.361C385.869 515.24 381.972 521.121 378.075 527C377.476 527.771 377.973 528.31 378.483 528.821C380.359 530.708 382.232 532.606 384.146 534.455C384.453 534.753 384.963 534.845 385.378 535.033C387.267 538.027 389.89 540.334 392.511 542.64C394.085 544.277 395.635 545.943 397.251 547.538C397.789 548.068 398.496 548.427 399.127 548.861C401.497 551.257 403.864 553.655 406.234 556.05C407.504 557.408 408.778 558.766 410.29 560.381C410.914 558.677 411.417 557.303 411.921 555.93C412.618 554.442 413.354 552.973 414 551.466C415.397 548.211 416.747 544.934 418.116 541.669C419.814 537.824 421.528 533.986 423.201 530.128C423.537 529.354 423.715 528.51 423.965 527.698C424.288 526.968 424.611 526.242 424.935 525.515C425.058 525.363 425.185 525.214 425.309 525.061C426.56 522.041 427.812 519.021 429.066 516.001C429.114 515.845 429.162 515.69 429.209 515.535C429.336 515.379 429.459 515.224 429.583 515.068L431.075 511.249L431.475 510.763C432.273 508.717 433.068 506.668 433.867 504.621L435.34 501.265C435.477 501.097 435.61 500.932 435.746 500.764C435.806 500.383 435.784 499.964 435.936 499.625C437.26 496.671 438.617 493.733 439.96 490.793C440.324 489.844 440.686 488.899 441.05 487.95C441.183 487.788 441.319 487.63 441.452 487.468C441.795 486.519 442.137 485.571 442.479 484.622C442.612 484.463 442.748 484.302 442.881 484.143C443.224 483.194 443.566 482.243 443.908 481.294C444.041 481.136 444.174 480.977 444.307 480.818C444.51 480.247 444.684 479.667 444.919 479.112C446.025 476.475 447.143 473.845 448.259 471.212C448.049 470.152 447.679 469.096 447.657 468.03C447.584 464.188 447.625 460.343 447.628 456.498C447.628 455.619 447.701 454.703 446.452 454.604C448.563 450.826 450.654 447.038 452.79 443.272C456.24 437.187 459.719 431.122 463.189 425.046C463.499 425.107 463.813 425.167 464.124 425.227C464.459 424.425 463.94 424.044 463.366 423.692L463.376 423.695Z" fill="#2C9196" fill-opacity="0.8"/>
<path d="M478.1 603.018C478.252 603.022 478.395 602.99 478.531 602.923L478.142 602.562C478.053 602.707 478.04 602.86 478.104 603.018H478.1Z" fill="#2C9196" fill-opacity="0.8"/>
<path d="M295.558 212.092L295.245 211.162C294.864 211.168 294.484 211.178 294.104 211.187C294.589 211.489 295.074 211.79 295.558 212.095V212.092Z" fill="#2C9196" fill-opacity="0.8"/>
<path d="M295.571 212.133C295.571 212.133 295.6 212.143 295.615 212.146C295.609 212.136 295.6 212.124 295.593 212.114C295.593 212.114 295.571 212.101 295.558 212.092C295.562 212.104 295.568 212.117 295.571 212.13V212.133Z" fill="#2C9196" fill-opacity="0.8"/>
<path d="M295.771 212.215C295.73 212.18 295.673 212.165 295.615 212.146C295.669 212.222 295.723 212.298 295.777 212.377C295.777 212.323 295.799 212.241 295.771 212.215Z" fill="#2C9196" fill-opacity="0.8"/>
<path d="M437.809 580.589L453.369 595.458L450.125 465.025L437.809 580.589Z" fill="#2C9196" fill-opacity="0.8"/>
</svg>
