<svg width="257" height="36" viewBox="0 0 257 36" fill="none" xmlns="http://www.w3.org/2000/svg">
<g clip-path="url(#clip0_71_13899)">
<path d="M87.1677 20.5695H86.4728V31.6201H75.9375V24.7855C75.8525 24.8256 75.8091 24.8353 75.7802 24.8609C74.2349 26.2112 72.6381 27.518 71.3142 29.0882C70.629 29.9006 69.9421 30.7033 69.1831 31.4451C69.0836 31.543 68.9231 31.6329 68.7899 31.6329C61.9552 31.6426 55.1189 31.6409 48.2842 31.6409C48.2296 31.6409 48.1767 31.6345 48.098 31.6281V9.49637H41.066V31.6217H30.5355V19.3413C30.3991 19.4536 30.3044 19.4954 30.2691 19.566C29.5598 21.0094 28.8601 22.4575 28.1524 23.9009C27.488 25.2575 26.8172 26.6093 26.1497 27.9644C25.8833 28.5054 25.6313 29.0561 25.3425 29.5859C25.1579 29.9247 24.8995 30.2233 24.707 30.5588C24.5224 30.8815 24.3796 31.2283 24.1934 31.6137H23.3253C23.0701 31.0854 22.8246 30.5717 22.5726 30.0611C22.2485 29.4013 21.9211 28.7446 21.5921 28.088C21.2872 27.4795 20.9791 26.8758 20.6758 26.2674C20.3484 25.6107 20.0275 24.9492 19.6969 24.2926C19.3872 23.6745 19.0662 23.0628 18.7581 22.4463C18.4388 21.8089 18.1242 21.1699 17.8161 20.5277C17.6203 20.1183 17.4438 19.6977 17.248 19.2883C17.2207 19.2321 17.1309 19.2048 17.0185 19.1309V31.6185H6.47523V9.48192H0V0.0351878H17.1614C17.4245 0.57945 17.6701 1.09963 17.9236 1.61339C18.2446 2.26522 18.5623 2.91866 18.8993 3.56246C19.0742 3.8948 19.2909 4.20466 19.4802 4.53057C19.6423 4.80832 19.8012 5.08928 19.9472 5.37667C20.4672 6.40418 20.9695 7.43973 21.499 8.46243C22.1634 9.74682 22.8422 11.0232 23.5275 12.2963C23.6238 12.4762 23.7923 12.6158 23.9174 12.7619C24.1999 12.1711 24.4422 11.6493 24.6957 11.1324C25.1098 10.2911 25.5174 9.44499 25.9571 8.61655C26.2492 8.06587 26.6022 7.55051 26.9055 7.00624C27.1382 6.58721 27.334 6.14891 27.5474 5.71864C27.8716 5.06841 28.1973 4.41979 28.5215 3.76957C28.8264 3.15948 29.1281 2.54939 29.4362 1.94091C29.502 1.81247 29.5903 1.69687 29.6625 1.57165C29.8631 1.22807 30.0878 0.895733 30.253 0.536102C30.4264 0.160416 30.5997 0.00789439 31.0153 0.00789439C49.3369 0.00789439 67.6569 0.00789439 85.9785 0.00789439C86.391 0.00789439 86.5418 0.136334 86.7135 0.51202C87.012 1.16224 87.2928 1.82692 87.6667 2.4338C88.3327 3.5175 88.9153 4.64135 89.4593 5.78767C89.8091 6.5246 90.0947 7.31129 90.5649 7.96472C91.0223 8.6005 91.3288 9.29568 91.6835 9.9748C92.0253 10.6282 92.3511 11.2913 92.6784 11.9528C92.8004 12.1984 92.9063 12.4505 93.0459 12.7555C93.1615 12.6383 93.346 12.5179 93.4343 12.3493C93.829 11.5867 94.1853 10.8032 94.5785 10.0406C94.771 9.66655 95.0278 9.32458 95.2332 8.95531C95.4755 8.51701 95.6954 8.06587 95.9217 7.61794C96.2474 6.96932 96.57 6.31909 96.8941 5.66887C97.2889 4.87896 97.6837 4.09067 98.0801 3.30076C98.1298 3.20122 98.1812 3.10329 98.2373 3.00696C98.5438 2.47875 98.8568 1.95375 99.1569 1.42073C99.327 1.1205 99.4746 0.809036 99.6335 0.502387C99.6495 0.471882 99.6848 0.442983 99.6832 0.41569C99.6575 -0.0659584 99.9962 0.00628889 100.295 0.00628889C103.549 0.00628889 106.804 0.00628889 110.058 0.00628889C110.193 0.00628889 110.328 0.00628889 110.499 0.00628889V22.1525C110.621 22.1637 110.706 22.1766 110.793 22.1766C113.394 22.1766 115.996 22.1766 118.597 22.1782C118.772 22.1782 118.952 22.2006 118.9 21.9068C119.353 21.9068 119.78 21.9197 120.203 21.8988C120.335 21.8924 120.462 21.7993 120.59 21.7463C120.582 21.7078 120.572 21.6692 120.564 21.6291H121.059C121.059 21.3273 121.075 21.0463 121.051 20.7701C121.041 20.6642 120.953 20.5502 120.871 20.4699C119.367 18.9624 117.84 17.4805 116.366 15.9456C115.866 15.4239 115.506 14.7704 115.079 14.178C114.823 13.8216 114.55 13.4764 114.301 13.1152C114.131 12.8679 113.978 12.6078 113.834 12.3445C113.638 11.9849 113.454 11.6188 113.276 11.2496C113.234 11.1629 113.235 11.0537 113.223 10.9542C113.2 10.7856 113.304 10.5833 113.022 10.4934C112.955 10.4725 112.982 10.1835 112.948 10.0214C112.905 9.81265 113.104 9.51724 112.733 9.41288C112.695 9.40164 112.683 9.24912 112.683 9.16242C112.68 8.00165 112.679 6.84088 112.688 5.68171C112.688 5.5902 112.794 5.5035 112.846 5.41038C112.884 5.33974 112.956 5.25465 112.942 5.19043C112.833 4.68309 113.105 4.28333 113.321 3.88035C113.659 3.24136 114.012 2.60719 114.41 2.00352C114.598 1.71775 114.813 1.39825 115.221 1.34848C115.28 1.34045 115.351 1.29711 115.389 1.24894C115.696 0.860412 116.183 0.768899 116.564 0.51202C116.909 0.280828 117.246 0.293672 117.608 0.267984C117.71 0.261562 117.804 0.144361 117.868 0.0143164H139.409V9.45302H128.415C128.425 9.48834 128.433 9.52526 128.442 9.56059C128.311 9.61999 128.182 9.71311 128.044 9.73077C127.812 9.75967 127.572 9.7388 127.337 9.7388C127.173 9.7388 127.022 9.71471 126.918 9.92182C126.873 10.0117 126.645 10.0085 126.492 10.0503C126.33 10.5608 126.582 11.0023 126.876 11.3587C127.325 11.903 127.8 12.481 128.388 12.8438C129.261 13.3849 129.859 14.1812 130.586 14.8571C130.87 15.122 131.052 15.4961 131.296 15.8076C131.419 15.9665 131.604 16.0789 131.719 16.241C132.056 16.7147 132.372 17.2027 132.696 17.686C132.722 17.7229 132.735 17.7711 132.767 17.8C133.292 18.2656 133.431 18.9543 133.768 19.5275C133.929 19.802 134.105 20.0669 134.251 20.3479C134.304 20.449 134.288 20.5871 134.304 20.7075C134.325 20.8665 134.219 21.0864 134.51 21.1234C134.539 21.1266 134.568 21.255 134.571 21.3273C134.579 21.5295 134.571 21.7334 134.577 21.9357C134.579 22.0112 134.598 22.1461 134.624 22.1493C134.954 22.1942 134.84 22.4463 134.842 22.6229C134.85 23.7499 134.85 24.8754 134.842 26.0025C134.842 26.1967 134.932 26.4504 134.624 26.5307C134.6 26.5371 134.577 26.6093 134.58 26.6495C134.627 27.3157 134.138 27.7749 133.932 28.3433C133.696 28.9951 133.178 29.4414 132.661 29.8396C132.141 30.241 131.506 30.4914 130.96 30.8639C130.67 31.0614 130.39 31.1352 130.058 31.0919C130.068 31.1272 130.076 31.1625 130.086 31.1978C129.92 31.2556 129.758 31.3391 129.588 31.3632C129.379 31.3921 129.163 31.3696 128.949 31.3696C128.957 31.4049 128.965 31.4387 128.973 31.474C128.842 31.5302 128.709 31.6329 128.577 31.6329C119.13 31.6409 109.683 31.6393 100.234 31.6393H99.9994V19.0683C99.863 19.1823 99.7683 19.2257 99.733 19.2979C99.1135 20.5614 98.5037 21.8298 97.8859 23.0933C97.2215 24.4499 96.5571 25.805 95.8815 27.1552C95.2974 28.3256 94.694 29.488 94.1083 30.6584C93.9703 30.9329 93.8724 31.2267 93.7504 31.5077C93.7312 31.5543 93.6942 31.6072 93.6509 31.6265C93.2 31.8224 92.6303 31.5815 92.4249 31.1529C92.1055 30.4786 91.7557 29.8203 91.4267 29.1508C91.117 28.5215 90.8217 27.8857 90.5088 27.2579C90.2007 26.6398 89.8765 26.0297 89.5668 25.4116C89.2474 24.7743 88.9409 24.1321 88.6232 23.4931C88.4049 23.0548 88.1739 22.6213 87.9556 22.183C87.6972 21.6612 87.4469 21.1346 87.1741 20.5695H87.1677ZM58.6317 30.9442C58.7842 30.8125 58.8933 30.7499 58.9575 30.6568C59.0955 30.4561 59.1822 30.2169 59.3362 30.0322C59.9316 29.321 60.5446 28.6258 61.1496 27.9226C61.1929 27.8712 61.2298 27.8151 61.2716 27.7621C61.5379 27.4217 61.7706 27.0444 62.0788 26.7474C63.0496 25.813 63.9435 24.808 65.0363 23.9876C65.6381 23.5364 66.2319 23.0451 66.8032 22.541C66.8433 22.5057 66.9027 22.4896 66.9508 22.4623C67.1097 22.3724 67.2782 22.2938 67.4226 22.1846C67.6457 22.016 67.8318 21.7945 68.0677 21.6516C68.6246 21.316 69.297 21.1795 69.7576 20.6706C69.8073 20.616 69.8892 20.5839 69.963 20.5614C70.2887 20.4587 70.5631 20.1697 70.9499 20.2789C70.9676 20.2837 70.998 20.2724 71.0125 20.2596C71.388 19.9032 71.8197 19.6913 72.3797 19.7458C72.3669 19.4649 72.5482 19.4697 72.7504 19.4697C72.9045 19.4697 73.1757 19.4552 73.195 19.391C73.2608 19.1518 73.4228 19.2208 73.5673 19.2048C73.7181 19.1887 73.9781 19.2112 74.0006 19.1486C74.1033 18.8628 74.3199 18.9511 74.5077 18.9367C74.888 18.9078 75.3165 19.0956 75.6005 18.6316C75.6561 18.9474 75.5577 19.1406 75.3052 19.2112C75.2523 19.2257 75.1977 19.2481 75.1512 19.277C74.7163 19.5419 74.2654 19.7812 73.8561 20.0798C73.2993 20.4876 72.736 20.9018 72.2466 21.3834C71.7908 21.833 71.4249 22.3724 71.0253 22.8782C70.8279 23.1286 70.645 23.3919 70.4588 23.652C70.1764 24.0438 69.8875 24.4307 69.6212 24.8337C69.4398 25.1082 69.2954 25.4068 69.1349 25.6958C69.1718 25.7247 69.2103 25.7552 69.2472 25.7841C69.4847 25.5176 69.7335 25.2591 69.9582 24.9814C70.1539 24.7421 70.2903 24.4467 70.5134 24.2428C70.8985 23.8944 71.3318 23.6006 71.741 23.2795C72.1214 22.9825 72.3894 22.5779 72.8756 22.3676C73.288 22.1878 73.5223 21.6949 74.0118 21.5312C74.3023 21.4332 74.5269 21.1539 74.8062 21.0045C75.5941 20.5839 76.3917 20.1793 77.194 19.786C77.4636 19.6543 77.7605 19.5805 78.043 19.4745C78.1762 19.4247 78.3045 19.3637 78.4345 19.3075C78.4249 19.2722 78.4153 19.2385 78.4072 19.2032H79.0716C79.3781 18.7023 79.8628 19.0667 80.1998 18.8532C80.2961 18.7585 80.4004 18.6766 80.5079 18.6702C80.8561 18.6525 81.206 18.6782 81.5542 18.6557C81.6858 18.6477 81.8126 18.553 81.9409 18.4984C81.9313 18.4631 81.9233 18.4293 81.9137 18.394C83.3547 18.394 84.7942 18.3908 86.2353 18.402C86.3348 18.402 86.4343 18.5225 86.5338 18.5883C86.76 18.6637 87.02 18.6557 87.2768 18.6686C87.3618 18.6734 87.4485 18.728 87.5287 18.7713C87.6202 18.8195 87.7085 18.9303 87.7919 18.9254C88.2188 18.8933 88.5831 19.1197 88.8446 19.3573C89.4256 19.8871 90.0659 20.3784 90.3997 21.1426C90.5986 21.597 90.8747 22.0112 90.7864 22.5474C90.7479 22.785 90.78 23.0355 90.78 23.3694C90.9084 23.2587 90.995 23.2121 91.0416 23.1399C91.1716 22.9408 91.2935 22.7369 91.4059 22.5266C91.5647 22.2279 91.8006 21.9325 91.8407 21.6162C91.8937 21.1828 92.2788 20.8456 92.1569 20.3784C92.1521 20.3591 92.2227 20.3254 92.2435 20.2917C92.2997 20.2018 92.4072 20.0974 92.3928 20.0156C92.2981 19.4199 92.6624 18.7585 92.1488 18.2222C92.2034 17.8658 92.0141 17.5848 91.8664 17.2894C91.7412 17.0406 91.6754 16.7468 91.5021 16.5429C90.7976 15.7144 89.9856 14.9984 89.0757 14.3979C89.0388 14.3739 88.9939 14.361 88.9538 14.3417C88.5205 14.1395 88.0792 13.95 87.6555 13.7284C87.3971 13.592 87.227 13.3785 87.2623 13.0445C87.28 12.8711 87.2816 12.6736 87.2158 12.5179C87.0682 12.1743 86.8692 11.8516 86.6975 11.5177C86.5851 11.3009 86.5242 11.0425 86.3701 10.8626C85.6608 10.0374 84.8648 9.29728 83.9373 8.72733C83.3981 8.395 82.8075 8.14454 82.233 7.87321C81.9827 7.7544 81.7131 7.67413 81.4531 7.5778C81.2862 7.51679 81.1177 7.45578 80.9508 7.39638C80.6298 7.16679 80.1468 7.57941 79.8981 7.03675C79.6413 7.03675 79.3829 7.04156 79.1246 7.03354C79.0524 7.03193 78.9192 6.99982 78.9176 6.97734C78.9015 6.67391 78.6785 6.77024 78.5212 6.76863C76.2023 6.76542 73.8818 6.77184 71.5629 6.76221C71.0382 6.7606 70.5118 6.85533 70.0111 6.51175C69.6404 6.25648 69.1702 6.15052 68.8749 5.76841C68.822 5.70098 68.7337 5.65923 68.6182 5.57254C68.6182 5.94822 68.6118 6.25327 68.623 6.5551C68.6262 6.62735 68.692 6.69638 68.7337 6.76542C68.7835 6.84891 68.891 6.94042 68.8781 7.01106C68.8011 7.44615 69.0499 7.79133 69.2665 8.0755C69.7977 8.77871 70.4637 9.31013 71.4426 9.20898C71.5677 9.19614 71.8084 9.06609 71.8325 9.34545C71.8357 9.37435 71.5822 9.45944 71.4474 9.46104C67.3039 9.46747 63.1604 9.46586 59.0169 9.46586C58.8885 9.46586 58.7585 9.46586 58.6269 9.46586V30.941L58.6317 30.9442Z" fill="white"/>
<path d="M160.613 10.3169C160.669 10.2479 160.783 10.1676 160.774 10.1098C160.697 9.66187 161.003 9.34559 161.164 8.99399C161.555 8.13023 162.006 7.29537 162.433 6.44767C162.841 5.64011 163.255 4.83415 163.659 4.02659C163.969 3.40687 164.27 2.78394 164.577 2.16421C164.874 1.56376 165.161 0.958488 165.474 0.364455C165.599 0.128448 165.796 -0.0096247 166.105 0.00161376C166.745 0.0240907 167.387 0.00803573 168.053 0.00803573V14.0449H165.917V13.6355C165.917 10.6396 165.917 7.64377 165.915 4.64631C165.915 4.49379 165.979 4.27544 165.654 4.33163C165.736 5.07658 165.296 5.65777 164.943 6.23093C164.07 7.65019 163.383 9.16096 162.637 10.6444C162.229 11.4536 161.805 12.2547 161.401 13.0655C161.26 13.3497 161.162 13.6547 161.027 13.9421C161 14.0015 160.897 14.0529 160.825 14.0593C160.648 14.0754 160.467 14.0641 160.356 14.0641C160.088 13.5086 159.843 12.9949 159.591 12.4843C159.267 11.8245 158.941 11.1678 158.61 10.5112C158.301 9.89467 157.981 9.28137 157.673 8.66326C157.44 8.19606 157.227 7.71762 156.985 7.25524C156.816 6.93574 156.611 6.63712 156.425 6.32726C156.259 6.04951 156.068 5.783 155.945 5.48759C155.807 5.15846 155.539 4.86144 155.632 4.45365C155.64 4.41512 155.513 4.34608 155.39 4.24012V14.0385H153.234V0.00964123C153.96 0.00964123 154.679 -0.0128357 155.393 0.0273017C155.548 0.0353291 155.749 0.231199 155.831 0.391749C156.33 1.36628 156.794 2.36008 157.28 3.33944C157.683 4.15021 158.11 4.94975 158.514 5.75892C158.918 6.56809 159.302 7.38849 159.71 8.19766C159.941 8.65362 160.225 9.08229 160.438 9.54467C160.531 9.74536 160.506 10.0022 160.533 10.2334C160.557 10.2607 160.583 10.2896 160.607 10.3169H160.613Z" fill="white"/>
<path d="M196.988 0.00800259V14.0368H194.849V4.46646C194.714 4.58366 194.619 4.62701 194.584 4.70086C193.965 5.96439 193.355 7.23112 192.737 8.49465C192.079 9.84005 191.42 11.1871 190.749 12.526C190.519 12.9836 190.288 13.4492 189.993 13.8634C189.757 14.1942 189.595 14.1845 189.369 13.8377C189.083 13.401 188.862 12.9226 188.624 12.4554C188.306 11.8309 187.997 11.2015 187.688 10.5722C187.542 10.2735 187.408 9.96849 187.268 9.66666C187.241 9.60725 187.221 9.5318 187.173 9.49487C186.642 9.07744 186.52 8.41437 186.199 7.87171C185.939 7.43181 185.735 6.95979 185.514 6.49902C185.283 6.01897 185.065 5.53251 184.835 5.05247C184.793 4.96737 184.72 4.89834 184.659 4.82128C184.633 4.83251 184.606 4.84375 184.58 4.85499V14.0416H182.422V0.032085H184.721C184.988 0.584375 185.232 1.10295 185.487 1.61831C185.8 2.24927 186.124 2.87381 186.44 3.50316C186.856 4.3316 187.27 5.16164 187.684 5.99168C187.993 6.6114 188.297 7.23433 188.611 7.85245C188.854 8.32767 189.134 8.78524 189.349 9.27171C189.447 9.49487 189.43 9.77101 189.476 10.1082C189.641 9.93638 189.826 9.81597 189.913 9.64579C190.314 8.8623 190.686 8.06277 191.076 7.27286C191.387 6.64191 191.713 6.01737 192.029 5.38801C192.336 4.77953 192.639 4.16944 192.944 3.55936C193.268 2.90913 193.597 2.26212 193.915 1.60868C194.148 1.13024 194.358 0.642173 194.591 0.165341C194.624 0.0946993 194.729 0.0144246 194.802 0.0128191C195.521 0.00158061 196.239 0.00639709 196.99 0.00639709L196.988 0.00800259Z" fill="white"/>
<path d="M248.886 31.6508C248.886 32.004 248.886 32.3283 248.886 32.6526C248.886 33.2065 249.202 33.5549 249.685 33.8374C250.141 34.104 250.595 34.0751 251.067 34.0767C251.878 34.0799 252.688 34.0815 253.498 34.0702C253.587 34.0702 253.676 33.9755 253.763 33.9209C253.814 33.8888 253.858 33.8278 253.912 33.8134C254.532 33.6624 254.834 33.2916 254.834 32.6703C254.834 32.4246 254.834 32.1806 254.834 31.9381C254.61 31.8723 254.331 32.012 254.253 31.6732C254.243 31.6331 253.978 31.6684 253.839 31.6363C253.689 31.6026 253.548 31.532 253.404 31.4774C253.412 31.442 253.42 31.4067 253.428 31.3714C251.987 31.3714 250.546 31.3923 249.106 31.3618C248.451 31.3473 247.96 30.946 247.596 30.4338C247.37 30.1159 247.561 29.0836 247.84 28.7978C248.037 28.5971 248.225 28.3836 248.443 28.2086C248.657 28.0368 248.901 27.9051 249.169 27.7318C249.157 27.7189 249.092 27.6242 249.011 27.5439C248.589 27.1217 248.158 26.7107 247.747 26.2772C247.643 26.168 247.583 25.9994 247.543 25.8485C247.498 25.6767 247.63 25.4375 247.323 25.3749C247.29 25.3685 247.272 25.2127 247.27 25.1244C247.264 24.7182 247.232 24.3088 247.28 23.9091C247.309 23.6715 247.476 23.4515 247.566 23.2187C247.798 22.6134 248.19 22.1125 248.705 21.7497C249.037 21.5153 249.47 21.427 249.872 21.2648C250.022 21.2102 250.172 21.1203 250.326 21.1075C250.639 21.0834 250.953 21.0995 251.263 21.0995C251.378 20.7832 251.844 20.6997 252.097 20.9662C252.319 21.199 252.45 21.1862 252.707 20.9806C252.986 20.7559 253.36 20.6483 253.693 20.4894C253.773 20.3368 253.827 20.1137 253.97 19.9868C254.229 19.7557 254.349 19.5084 254.298 19.1632C254.275 19.0123 254.294 18.8534 254.294 18.6447C254.692 18.7795 255.145 18.4311 255.463 18.9369H256.422C256.555 19.6256 256.379 20.2196 255.881 20.6772C255.663 20.8779 255.336 20.9534 255.068 21.1059C254.877 21.2151 254.702 21.3531 254.447 21.5313C255.272 21.724 255.649 22.3116 256.061 22.7981C256.295 23.0758 256.539 23.4692 256.464 23.9315C256.419 24.2061 256.429 24.4967 256.461 24.7744C256.519 25.2721 256.36 25.7056 256.119 26.1166C255.941 26.4233 255.772 26.754 255.522 26.9932C255.262 27.2405 254.901 27.3753 254.599 27.5824C254.224 27.8409 253.814 27.9019 253.375 27.8618C253.333 27.8586 253.254 27.8698 253.25 27.8859C253.16 28.3113 252.821 28.109 252.6 28.1203C251.993 28.1476 251.383 28.1219 250.777 28.1379C250.674 28.1412 250.578 28.2487 250.473 28.2969C250.38 28.3402 250.273 28.4093 250.185 28.3932C249.653 28.2953 249.496 28.7866 249.185 29.0226C249.08 29.1012 249.425 29.4609 249.653 29.4817C249.788 29.4946 249.923 29.4866 250.058 29.4866C251.263 29.4866 252.466 29.485 253.672 29.4866C253.855 29.4866 254.097 29.4079 254.03 29.7563C254.243 29.7563 254.411 29.7691 254.578 29.7547C255.191 29.6985 255.662 29.9778 256.104 30.3583C256.485 30.6859 256.734 31.1017 256.95 31.5416C256.992 31.6267 256.992 31.7391 256.992 31.8386C256.997 32.256 257.002 32.6719 256.989 33.0893C256.984 33.2691 257.08 33.5099 256.769 33.5741C256.734 33.5822 256.721 33.7797 256.726 33.8872C256.738 34.104 256.679 34.2645 256.504 34.4154C256.214 34.6643 255.968 34.9629 255.678 35.2118C255.549 35.3225 255.365 35.3819 255.195 35.4285C255.041 35.4702 254.821 35.3546 254.793 35.6452C254.79 35.6709 254.659 35.6982 254.585 35.7014C254.416 35.7095 254.248 35.7046 254.11 35.7624C254.01 35.8331 253.911 35.9647 253.81 35.9647C252.46 35.9776 251.109 35.9744 249.758 35.9744C249.767 35.9406 249.777 35.9053 249.787 35.8716C249.657 35.8154 249.522 35.7062 249.395 35.7127C248.779 35.748 248.305 35.4718 247.877 35.0753C247.704 34.9147 247.546 34.7365 247.367 34.5824C247.107 34.3576 246.919 34.112 246.991 33.7411C246.999 33.6978 247.004 33.6223 246.983 33.6111C246.5 33.3494 246.797 32.8998 246.729 32.5418C246.694 32.3572 246.723 32.1613 246.723 31.9189C247.079 31.9189 247.423 31.9333 247.766 31.9109C247.898 31.9028 248.024 31.8081 248.153 31.7535C248.143 31.7214 248.135 31.6893 248.126 31.6572H248.883L248.886 31.6508ZM251.882 22.9891C251.602 22.9891 251.314 23.0228 251.04 22.9811C250.591 22.9137 250.294 23.2155 249.966 23.4033C249.793 23.5029 249.761 23.8208 249.604 23.9797C249.345 24.2414 249.403 24.5545 249.441 24.8354C249.48 25.11 249.639 25.3685 249.75 25.6318C249.759 25.6558 249.804 25.6671 249.835 25.6815C250.008 25.7586 250.181 25.8341 250.355 25.9127C250.592 26.0203 250.825 26.2033 251.069 26.221C251.706 26.2643 252.349 26.2386 252.99 26.2322C253.063 26.2322 253.14 26.1857 253.211 26.1471C253.312 26.0925 253.4 25.9946 253.505 25.9721C253.76 25.9191 254.288 25.3909 254.293 25.1373C254.299 24.7776 254.299 24.418 254.289 24.0568C254.288 23.9733 254.264 23.8673 254.211 23.8143C253.733 23.3439 253.234 22.9137 252.491 22.9843C252.29 23.0036 252.086 22.9875 251.884 22.9875L251.882 22.9891Z" fill="white"/>
<path d="M181.658 27.9645C181.526 28.0174 181.395 28.1154 181.261 28.117C180.575 28.133 179.888 28.1234 179.201 28.125C179.052 28.125 178.882 28.0736 178.843 28.3161C178.837 28.3546 178.675 28.3787 178.581 28.3931C178.373 28.4285 178.113 28.2856 177.991 28.6163C177.967 28.6821 177.726 28.6677 177.583 28.6901C177.457 29.1509 177.699 29.4768 178.182 29.4784C179.477 29.4817 180.772 29.4784 182.067 29.4817C182.207 29.4817 182.401 29.4094 182.417 29.6727C182.418 29.7016 182.539 29.7434 182.605 29.7466C182.807 29.7562 183.012 29.7337 183.211 29.7578C183.307 29.769 183.393 29.8589 183.484 29.9103C183.553 29.9489 183.63 30.0227 183.694 30.0131C184.038 29.9585 184.266 30.1255 184.482 30.3615C184.647 30.5413 184.869 30.6745 185.017 30.8656C185.098 30.9732 185.084 31.1578 185.105 31.3087C185.124 31.4516 185.044 31.6378 185.299 31.6635C185.331 31.6667 185.371 31.8096 185.373 31.8883C185.381 32.2945 185.408 32.7023 185.365 33.1037C185.339 33.3493 185.227 33.5981 185.102 33.8165C184.887 34.1906 184.678 34.5871 184.381 34.8906C184.144 35.1346 183.778 35.2534 183.47 35.43C183.173 35.6002 182.881 35.78 182.513 35.7029C182.494 35.6997 182.455 35.7094 182.452 35.7206C182.321 36.1605 181.958 35.9534 181.704 35.9598C180.613 35.9839 179.52 35.9679 178.427 35.9727C178.228 35.9727 178.036 35.9935 178.062 35.6773C176.868 35.886 176.224 35.0816 175.563 34.3624C174.934 33.6768 175.11 32.8002 175.118 31.9349H176.129C176.24 31.6105 176.6 31.5495 177.33 31.7374C177.24 31.9043 177.18 32.0697 177.076 32.1982C176.937 32.3683 176.948 32.5144 177.059 32.683C177.136 32.8034 177.181 32.9495 177.272 33.0555C177.49 33.3075 177.697 33.5837 177.964 33.7731C178.328 34.0316 178.753 34.1135 179.22 34.091C180.085 34.0509 180.953 34.0814 181.821 34.0782C181.968 34.0782 182.15 34.136 182.165 33.8855C182.165 33.8598 182.236 33.8149 182.268 33.8181C182.683 33.8679 182.842 33.5114 183.08 33.2963C183.303 33.0924 183.282 32.3619 183.073 32.1436C182.8 31.8578 182.563 31.4998 182.072 31.6394C182.027 31.6523 181.924 31.625 181.919 31.6025C181.846 31.2397 181.56 31.3794 181.359 31.3777C180.087 31.3681 178.814 31.3874 177.542 31.3665C176.864 31.3553 176.282 31.0005 176.006 30.4369C175.792 30.0018 175.778 29.4158 176.08 28.9229C176.195 28.7351 176.25 28.4718 176.413 28.3594C176.766 28.117 177.172 27.9516 177.569 27.7477C177.302 27.5326 177.136 27.0847 176.636 27.0236C176.575 27.0156 176.473 26.9257 176.478 26.884C176.511 26.5966 176.267 26.489 176.142 26.3012C175.89 25.9207 175.598 25.5562 175.642 25.0473C175.67 24.7005 175.642 24.3489 175.65 24.0005C175.654 23.8111 175.579 23.5831 175.86 23.4932C175.898 23.4819 175.921 23.3519 175.913 23.2796C175.879 22.9794 176.023 22.7755 176.222 22.57C176.725 22.0546 177.275 21.6404 177.932 21.3065C178.426 21.0544 178.883 21.1427 179.36 21.1042C179.556 21.0881 179.745 21.117 179.726 20.8088C180.029 20.9019 180.398 20.6434 180.567 21.0833C180.571 21.0946 180.764 21.0689 180.769 21.0416C180.814 20.7959 180.998 20.8184 181.162 20.8313C181.401 20.8505 181.586 20.8007 181.736 20.5904C182.025 20.1858 182.365 19.8166 182.622 19.3927C182.73 19.2145 182.677 18.9384 182.701 18.659C183.068 18.7666 183.51 18.4487 183.858 18.9416H184.8C184.901 19.4858 184.875 19.9579 184.387 20.3063C183.999 20.584 183.633 20.8907 183.261 21.1877C183.139 21.2856 183.027 21.3948 182.842 21.5585C183.685 21.687 183.946 22.4175 184.5 22.7819C184.559 22.8205 184.545 22.9682 184.566 23.0661C184.604 23.2459 184.442 23.5188 184.795 23.5622C184.818 23.5654 184.834 23.7035 184.834 23.7805C184.837 24.2654 184.893 24.7583 184.816 25.2303C184.758 25.5867 184.586 25.9608 184.363 26.2466C184.041 26.6608 183.649 27.0301 183.245 27.3688C182.799 27.7429 182.284 27.9902 181.656 27.8264C181.656 27.8713 181.658 27.9179 181.659 27.9629L181.658 27.9645ZM182.382 25.5691C182.41 25.4808 182.457 25.325 182.515 25.1757C182.558 25.0633 182.656 24.9606 182.666 24.8466C182.69 24.5897 182.68 24.3296 182.672 24.0711C182.669 23.9877 182.653 23.8785 182.6 23.8255C182.133 23.3631 181.651 22.9328 180.92 22.9826C180.562 23.0067 180.201 22.981 179.841 22.989C179.44 22.9987 179.064 22.9826 178.663 23.201C177.92 23.6039 177.437 24.5704 177.846 25.3106C178.119 25.8067 178.639 26.1503 179.217 26.2177C179.827 26.2899 180.451 26.237 181.07 26.2321C181.152 26.2321 181.242 26.2097 181.313 26.1711C181.655 25.9865 181.992 25.7906 182.383 25.5707L182.382 25.5691Z" fill="white"/>
<path d="M208.22 4.8534C207.931 4.60455 207.86 4.34607 207.785 4.03781C207.65 3.48873 207.348 2.99424 206.801 2.71489C206.488 2.55434 206.183 2.37452 205.87 2.21397C205.795 2.17544 205.699 2.17062 205.61 2.17062C204.834 2.16741 204.057 2.16099 203.28 2.17544C203.149 2.17705 202.991 2.23966 202.895 2.32796C202.577 2.61374 202.279 2.92039 201.984 3.23025C201.921 3.29447 201.879 3.39883 201.868 3.48873C201.849 3.63323 201.863 3.78093 201.863 3.92703C201.863 4.5612 202.127 4.9096 202.703 5.17932C202.99 5.31418 203.253 5.46831 203.582 5.41854C203.614 5.41372 203.672 5.41693 203.678 5.43299C203.866 5.89698 204.266 5.61762 204.564 5.68184C204.693 5.71074 204.84 5.66578 204.848 5.8745C204.848 5.9034 204.967 5.94835 205.033 5.95156C205.224 5.9628 205.415 5.95156 205.607 5.95638C205.745 5.95959 205.904 5.91303 205.938 6.14101C205.944 6.18275 206.122 6.20363 206.223 6.2245C206.419 6.26303 206.692 6.1073 206.766 6.44927C206.771 6.47174 206.843 6.48619 206.886 6.49101C208.05 6.6355 208.892 7.32747 209.582 8.19123C209.813 8.48022 210.035 8.86553 209.982 9.32952C209.929 9.79672 209.958 10.2752 209.972 10.7472C210 11.6511 209.587 12.38 208.984 12.974C208.624 13.3288 208.125 13.5456 207.682 13.8121C207.514 13.9132 207.331 14.016 207.141 14.0545C206.938 14.0962 206.718 14.0641 206.504 14.0641C206.512 14.0962 206.522 14.1267 206.53 14.1588C206.408 14.2183 206.288 14.3258 206.166 14.3274C205.277 14.3419 204.388 14.3419 203.499 14.3274C203.378 14.3258 203.259 14.2183 203.158 14.1027C202.475 14.2311 201.934 13.8538 201.398 13.5295C200.88 13.2164 200.35 12.8889 199.922 12.4699C199.586 12.1423 199.448 11.6206 199.134 11.2641C198.678 10.7504 199.089 10.5256 199.378 10.235C199.561 10.052 199.729 9.8497 199.933 9.69236C200.145 9.527 200.377 9.34397 200.626 9.2942C200.735 9.27172 201.038 9.57516 201.027 9.70842C200.987 10.1403 201.241 10.3602 201.491 10.6187C202.025 11.1694 202.574 11.6639 203.311 11.9722C203.661 12.1183 203.975 12.168 204.325 12.1729C204.718 12.1777 205.119 12.1311 205.506 12.1857C206.013 12.2579 206.358 11.9497 206.761 11.7651C206.912 11.696 207.077 11.6543 207.217 11.5692C207.607 11.33 208.006 10.2607 207.791 9.86415C207.517 9.36003 207.265 8.84306 206.642 8.58136C206.318 8.4465 206.028 8.41279 205.705 8.38068C205.57 8.36783 205.444 8.27953 205.322 8.18802C204.994 7.96485 204.505 8.38228 204.235 7.85889C203.762 7.8225 203.5 7.74008 203.449 7.61164C203.096 7.43343 202.611 7.8316 202.343 7.31623C201.713 7.33229 201.226 7.02564 200.769 6.60179C200.363 6.2245 200.023 5.81188 199.769 5.32542C199.719 5.2307 199.707 5.10868 199.707 4.9995C199.702 4.30111 199.649 3.5963 199.726 2.90755C199.768 2.53828 199.984 2.15296 200.218 1.84952C200.539 1.4337 200.917 1.04036 201.339 0.7321C201.696 0.47201 202.088 0.160545 202.611 0.293801C202.6 0.255269 202.59 0.215131 202.579 0.176599C202.732 0.120407 202.882 0.019261 203.035 0.0176555C204.07 0.00320607 205.107 0.00802255 206.142 0.012839C206.275 0.012839 206.451 -0.0449587 206.469 0.191049C206.471 0.223159 206.544 0.269718 206.588 0.274535C207.673 0.402974 208.48 1.00664 209.163 1.80297C209.491 2.18507 209.759 2.60892 209.699 3.15158C209.688 3.24791 209.682 3.37153 209.622 3.43415C209.167 3.91098 208.698 4.37657 208.221 4.85662L208.22 4.8534Z" fill="white"/>
<path d="M161.584 23.2492V25.4037H155.401V29.2056H162.927V31.3473H153.236V17.3297H162.919V19.4602H155.404V23.2492H161.584Z" fill="white"/>
<path d="M204.356 26.7572C204.441 27.1217 204.463 27.4701 204.603 27.7606C204.824 28.2182 205.089 28.6678 205.524 28.9712C205.896 29.2313 206.259 29.5187 206.758 29.4849C206.832 29.4801 206.912 29.5363 206.984 29.5732C207.084 29.6262 207.172 29.721 207.276 29.7418C207.429 29.7707 207.589 29.7499 207.774 29.7499C207.779 29.5026 207.926 29.4432 208.143 29.4769C208.231 29.4898 208.324 29.4689 208.412 29.4817C208.687 29.5187 208.886 29.4432 209.074 29.2136C209.205 29.0515 209.44 28.9712 209.626 28.8556C209.807 28.5136 209.995 28.1411 210.205 27.7831C210.242 27.7221 210.398 27.674 210.47 27.6996C210.988 27.8859 211.336 28.3017 211.721 28.6678C211.882 28.8203 211.869 28.9487 211.782 29.1414C211.428 29.9265 210.712 30.3937 210.165 31.0086C210.101 31.0808 209.942 31.076 209.826 31.0985C209.664 31.1306 209.423 30.9957 209.391 31.312C209.388 31.3377 209.255 31.3634 209.183 31.3682C209.014 31.3762 208.846 31.3714 208.677 31.3714C208.687 31.4035 208.695 31.434 208.705 31.4661C208.571 31.5255 208.44 31.6315 208.307 31.6347C207.621 31.6524 206.934 31.6427 206.249 31.6427C206.259 31.609 206.269 31.5737 206.278 31.54C206.148 31.4838 206.005 31.3634 205.888 31.3842C205.424 31.4661 205.079 31.19 204.694 31.0391C204.171 30.832 203.751 30.4787 203.404 30.0453C203.163 29.745 202.945 29.4239 202.735 29.1012C202.68 29.0161 202.688 28.8877 202.674 28.7785C202.653 28.618 202.754 28.4077 202.476 28.3595C202.443 28.3531 202.414 28.223 202.411 28.1492C202.401 27.9356 202.411 27.7221 202.401 27.5086C202.393 27.3143 202.484 27.0831 202.197 26.9836C202.152 26.9675 202.139 26.8214 202.136 26.7347C202.128 26.4763 202.131 26.2162 202.136 25.9577C202.136 25.8919 202.136 25.7779 202.168 25.7666C202.55 25.6253 202.367 25.3026 202.401 25.0554C202.44 24.7808 202.302 24.4581 202.642 24.2751C202.667 24.2607 202.669 24.1932 202.671 24.1499C202.691 23.5671 202.982 23.1192 203.378 22.7242C203.601 22.501 203.805 22.2538 204.056 22.066C204.389 21.8123 204.773 21.6244 205.108 21.374C205.542 21.0497 206.029 21.1123 206.516 21.0946C206.615 21.0914 206.711 20.9774 206.89 20.8602C207.13 20.9533 207.583 20.5969 207.897 21.1027C208.045 21.1027 208.236 21.1139 208.425 21.1011C209.001 21.0577 209.452 21.3146 209.849 21.6903C210.192 22.0146 210.537 22.3405 210.844 22.7001C211.027 22.9153 211.129 23.1994 211.277 23.4467C211.508 23.8336 211.677 24.2334 211.595 24.699C211.587 24.7487 211.608 24.8499 211.628 24.8531C212.002 24.9221 211.845 25.2175 211.855 25.4182C211.876 25.8549 211.861 26.2932 211.861 26.7636H204.357L204.356 26.7572ZM209.722 25.4054C209.693 25.224 209.722 24.9815 209.634 24.9253C209.407 24.7825 209.449 24.5898 209.428 24.3955C209.419 24.2992 209.419 24.1756 209.361 24.113C208.775 23.4836 208.185 22.8639 207.199 22.9827C206.899 23.0196 206.554 22.9088 206.297 23.0196C205.755 23.2556 205.251 23.6088 204.932 24.1178C204.699 24.4886 204.415 24.8884 204.606 25.4054H209.72H209.722Z" fill="white"/>
<path d="M216.112 21.2632C216.242 21.2086 216.371 21.1155 216.504 21.1059C216.828 21.0834 217.155 21.0978 217.404 21.0978C217.539 20.979 217.629 20.8362 217.707 20.841C217.921 20.8554 218.182 20.7029 218.344 20.9806C218.375 21.0336 218.45 21.0706 218.513 21.093C218.563 21.1107 218.625 21.1059 218.68 21.0962C219.217 21.0031 219.662 21.2407 220.135 21.4446C220.804 21.732 221.292 22.2313 221.716 22.7708C221.931 23.0453 222.21 23.3873 222.133 23.824C222.12 23.8946 222.151 24.0343 222.177 24.0391C222.496 24.0905 222.393 24.3345 222.396 24.5159C222.404 25.2561 222.4 25.9978 222.4 26.7636H215.164C214.944 27.271 215.238 27.6531 215.44 28.0304C215.626 28.3772 215.846 28.7288 216.128 28.9969C216.454 29.3051 216.852 29.5411 217.353 29.485C217.547 29.4625 217.749 29.4432 217.86 29.7033C217.884 29.7611 218.263 29.7643 218.29 29.7065C218.42 29.4191 218.648 29.4882 218.863 29.4785C219.108 29.4689 219.399 29.5749 219.522 29.2329C220.029 29.2489 220.209 28.785 220.543 28.5457C220.764 28.3868 220.792 28.1717 220.795 27.9244C220.795 27.8152 220.869 27.6194 220.917 27.6178C221.044 27.6113 221.194 27.6627 221.302 27.7382C221.637 27.9726 221.957 28.2295 222.286 28.4751C222.642 28.7416 222.875 28.9327 222.408 29.334C222.241 29.4769 222.188 29.7434 222.045 29.9216C221.62 30.4515 221.072 30.8111 220.467 31.1354C220.049 31.3602 219.654 31.3618 219.23 31.3746C219.238 31.4083 219.248 31.4404 219.256 31.4742C219.102 31.5303 218.949 31.6299 218.794 31.6363C218.221 31.6556 217.645 31.6363 217.072 31.6492C216.858 31.654 216.699 31.6299 216.698 31.4067C215.896 31.3409 215.257 30.9636 214.676 30.5012C214.109 30.0517 213.686 29.4882 213.413 28.7962C213.313 28.5425 213.199 28.3178 213.212 28.0432C213.216 27.9902 213.201 27.8923 213.18 27.8875C212.832 27.8201 212.954 27.5439 212.951 27.3464C212.936 26.6705 212.933 25.9946 212.954 25.3187C212.959 25.1662 213.074 25.0169 213.142 24.8659C213.15 24.8467 213.188 24.8306 213.185 24.8194C213.094 24.3923 213.431 24.0841 213.493 23.6971C213.52 23.527 213.625 23.3648 213.715 23.2091C213.821 23.026 213.944 22.8559 214.064 22.6809C214.297 22.3421 214.501 21.9712 214.97 21.9038C215.019 21.8974 215.079 21.8605 215.108 21.8187C215.361 21.4591 215.687 21.268 216.154 21.3868C216.141 21.3467 216.127 21.3066 216.114 21.2664L216.112 21.2632ZM220.567 25.415C220.439 25.2095 220.275 25.0618 220.264 24.9029C220.244 24.6267 220.148 24.4052 220.034 24.1595C219.702 23.4483 219.046 22.9891 218.271 22.9891C218.08 22.9891 217.885 23.0084 217.698 22.9859C217.11 22.9137 216.674 23.2123 216.266 23.5639C215.995 23.7983 215.751 24.0664 215.498 24.3217C215.453 24.3682 215.38 24.4293 215.385 24.4774C215.419 24.813 215.327 25.1003 215.103 25.3476C215.096 25.354 215.119 25.3845 215.132 25.415H220.567Z" fill="white"/>
<path d="M245.373 31.3617H243.213C243.213 31.2413 243.213 31.1241 243.213 31.0069C243.213 29.0032 243.213 26.9979 243.213 24.9943C243.213 24.8273 243.274 24.6395 243.026 24.556C242.971 24.5383 242.939 24.3505 242.952 24.2461C242.984 23.9796 242.84 23.8223 242.687 23.6296C242.271 23.103 241.779 22.8205 241.151 23.0019C241.049 22.8654 240.984 22.7771 240.919 22.6904C240.85 22.7755 240.781 22.859 240.688 22.9746C240.702 22.9714 240.667 22.9906 240.638 22.9842C239.892 22.8172 239.41 23.2379 239.041 23.7805C238.82 24.1048 238.603 24.4484 238.608 24.9044C238.632 26.9193 238.617 28.9358 238.617 30.9507C238.617 31.0743 238.617 31.1963 238.617 31.344H236.207V21.1138H238.603V22.5732C238.781 22.4207 238.906 22.3356 239.004 22.2264C239.394 21.7961 239.813 21.3884 240.352 21.17C240.619 21.0624 240.944 21.0962 241.262 21.064C241.431 20.6113 241.84 20.8826 242.146 20.8377C242.244 20.8232 242.363 20.9468 242.474 21.0079C242.466 21.0367 242.459 21.0673 242.451 21.0962C242.608 21.0962 242.766 21.1074 242.921 21.0945C243.34 21.056 243.721 21.0994 243.998 21.4767C244.064 21.565 244.208 21.5906 244.313 21.6533C244.425 21.7223 244.577 21.7753 244.634 21.878C244.828 22.2377 245.157 22.5443 245.107 23.0083C245.099 23.0805 245.123 23.2186 245.15 23.225C245.489 23.286 245.369 23.5493 245.369 23.7356C245.375 26.1454 245.373 28.5553 245.373 30.9651C245.373 31.0871 245.373 31.2092 245.373 31.3617Z" fill="white"/>
<path d="M173.754 31.3553H171.325V30.9925C171.325 28.8652 171.314 26.7363 171.333 24.609C171.336 24.1595 171.095 23.8416 170.898 23.4916C170.582 22.9313 170.049 22.9232 169.532 23.0067C169.436 22.8799 169.364 22.7852 169.293 22.6904C169.226 22.7771 169.157 22.8638 169.07 22.9762C169.086 22.9714 169.064 22.9859 169.044 22.9826C168.388 22.8687 167.936 23.1593 167.505 23.6377C167.185 23.9957 166.896 24.3008 166.986 24.8241C167.002 24.9221 166.875 25.0393 166.83 25.1533C166.785 25.2689 166.734 25.3925 166.734 25.5113C166.727 27.3239 166.729 29.1365 166.729 30.9491V31.3441H164.59V21.1139H166.719V23.0533C166.849 22.9778 166.953 22.9554 166.981 22.8976C167.093 22.6599 167.159 22.3966 167.289 22.1703C167.39 21.9921 167.533 21.8122 167.701 21.7047C168.035 21.4911 168.385 21.2824 168.757 21.154C169.032 21.0593 169.353 21.0962 169.653 21.0753L169.627 20.9934C169.757 20.9372 169.882 20.8538 170.017 20.8329C170.192 20.8056 170.376 20.8233 170.556 20.8297C170.62 20.8313 170.737 20.8489 170.741 20.8714C170.792 21.2086 171.054 21.1042 171.235 21.0898C171.731 21.0528 172.093 21.3306 172.458 21.5859C172.902 21.8989 173.188 22.3549 173.435 22.8317C173.474 22.9072 173.472 23.0051 173.486 23.0918C173.515 23.2684 173.384 23.5157 173.705 23.5687C173.734 23.5735 173.754 23.7083 173.754 23.7838C173.758 26.2948 173.756 28.8042 173.756 31.3537L173.754 31.3553Z" fill="white"/>
<path d="M191.617 21.1058H193.732V22.5652C193.878 22.4544 193.966 22.3998 194.04 22.3308C194.212 22.1686 194.38 22.0016 194.542 21.8299C195.022 21.3241 195.584 21.0175 196.306 21.0961C196.428 21.109 196.552 21.0978 196.585 21.0978C196.733 20.9725 196.821 20.8377 196.905 20.8409C197.112 20.8457 197.32 20.9067 197.522 20.9613C197.612 20.9854 197.688 21.0753 197.778 21.0913C197.909 21.1138 198.047 21.109 198.182 21.0961C198.535 21.0608 198.838 21.1186 199.076 21.4253C199.163 21.5377 199.349 21.5698 199.467 21.6645C199.63 21.7913 199.806 21.9214 199.915 22.0916C200.117 22.4078 200.278 22.7498 200.448 23.0854C200.486 23.1624 200.506 23.2571 200.506 23.3438C200.509 26.0009 200.509 28.6596 200.509 31.344H198.349V30.9924C198.349 28.9872 198.349 26.9819 198.347 24.9782C198.347 24.8241 198.415 24.6395 198.172 24.5688C198.124 24.5544 198.081 24.4083 198.092 24.3312C198.15 23.9684 197.908 23.7741 197.717 23.5221C197.33 23.0115 196.834 22.8895 196.304 23.0019C196.189 22.8686 196.112 22.7819 196.035 22.6936C195.975 22.7755 195.915 22.8574 195.826 22.9762C195.839 22.973 195.793 22.9971 195.754 22.9874C194.993 22.8028 194.534 23.2716 194.165 23.7982C193.941 24.1177 193.738 24.4725 193.743 24.9253C193.767 26.9418 193.753 28.9583 193.753 30.9732V31.3537H191.617V21.1074V21.1058Z" fill="white"/>
<path d="M174.019 14.0401V2.1771H169.726V0.0273438H180.483V2.16105H176.197V14.0385H174.019V14.0401Z" fill="white"/>
<path d="M145.944 0.0224609H147.252V31.3537H145.944V0.0224609Z" fill="white"/>
<path d="M226.455 31.3537H224.312V21.1203H226.448V23.0887C226.58 22.9843 226.667 22.941 226.715 22.8719C226.869 22.6488 226.999 22.4095 227.158 22.1912C227.249 22.066 227.379 21.968 227.49 21.8556C227.796 21.5506 228.157 21.3815 228.573 21.3483C228.564 21.321 228.556 21.2937 228.546 21.268C228.666 21.2102 228.783 21.1123 228.907 21.1043C229.252 21.0818 229.599 21.0962 229.833 21.0962C229.987 21.3612 230.117 21.5362 230.194 21.7352C230.249 21.8749 230.228 22.0435 230.24 22.1992C230.266 22.5219 230.138 22.8735 230.467 23.1368C230.534 23.1898 230.502 23.3664 230.52 23.5302C229.95 23.5302 229.409 23.5671 228.876 23.5189C228.411 23.4772 228.005 23.6024 227.658 23.8593C227.27 24.1483 226.927 24.479 226.675 24.9366C226.447 25.3508 226.46 25.7442 226.458 26.1616C226.453 27.7607 226.456 29.3613 226.456 30.9604V31.357L226.455 31.3537Z" fill="white"/>
<path d="M189.136 31.3537H186.745V21.1235H189.136V31.3537Z" fill="white"/>
<path d="M233.729 31.3537H231.609V21.1235H233.729V31.3537Z" fill="white"/>
<path d="M232.794 19.7444C232.704 19.7444 232.614 19.7444 232.524 19.7444C231.775 19.7444 231.314 19.2852 231.324 18.529C231.329 18.1485 231.248 17.768 231.601 17.4389C231.901 17.1563 232.184 16.9845 232.603 17.0375C232.834 17.068 233.075 17.0584 233.309 17.0375C233.564 17.015 233.768 17.0985 233.867 17.3201C234.042 17.7038 234.387 18.0393 234.289 18.513C234.198 18.9513 234.057 19.4072 233.673 19.6497C233.445 19.7941 233.094 19.7428 232.799 19.7797C232.799 19.7685 232.795 19.7572 232.795 19.746L232.794 19.7444Z" fill="white"/>
<path d="M187.942 19.7443C187.774 19.7443 187.603 19.7299 187.437 19.7475C187.181 19.7748 186.971 19.6881 186.877 19.465C186.706 19.0652 186.3 18.712 186.47 18.2335C186.61 17.8402 186.854 17.4822 187.077 17.1241C187.119 17.0583 187.281 17.0487 187.388 17.0455C187.737 17.0358 188.085 17.0551 188.432 17.0374C188.68 17.0246 188.89 17.0824 188.996 17.3104C189.179 17.7037 189.529 18.0505 189.423 18.5338C189.33 18.9576 189.189 19.4056 188.818 19.6416C188.59 19.7861 188.241 19.7411 187.947 19.7812C187.947 19.7684 187.944 19.7572 187.942 19.7443Z" fill="white"/>
<path d="M81.7435 14.3307C81.3359 14.4736 81.0807 14.1573 80.763 13.8908C80.0986 13.3353 79.7873 12.5775 79.4134 11.8389C79.2321 11.4809 78.8822 11.2096 78.6094 10.8981C78.5244 10.8018 78.4441 10.7022 78.3318 10.5674C78.4602 10.5594 78.5452 10.5272 78.5902 10.5561C79.1952 10.9366 79.9366 10.9768 80.5287 11.4616C81.0085 11.8566 81.5092 12.2243 81.9377 12.6802C82.0099 12.7573 82.0869 12.8504 82.1158 12.9499C82.233 13.3674 82.5844 13.56 82.8909 13.7976C83.1926 14.0304 83.4975 14.2568 83.8008 14.4864C83.7816 14.5265 83.7623 14.5651 83.7431 14.6052C83.1766 14.6052 82.6085 14.6132 82.042 14.5956C81.9634 14.5924 81.8896 14.4623 81.7483 14.3307H81.7435Z" fill="white"/>
</g>
<defs>
<clipPath id="clip0_71_13899">
<rect width="257" height="36" fill="white"/>
</clipPath>
</defs>
</svg>
